<svg width="241" height="48" viewBox="0 0 241 48" fill="none" xmlns="http://www.w3.org/2000/svg">
<g clip-path="url(#clip0_98_1444)">
<path d="M94.1595 17.5045V14.1711C94.5753 14.2076 95.1255 14.2076 95.439 14.2076C97.7485 14.2076 98.9768 12.7851 98.9768 11.216C98.9768 9.64693 98.0812 8.2489 95.2342 8.2489C94.556 8.2489 93.027 8.2489 92.4833 8.2489V17.474L94.1595 17.5045ZM95.375 9.76912C96.5329 9.76912 97.1599 10.2452 97.1599 11.2038C97.1599 12.1622 96.373 12.6935 95.3622 12.6935C94.9604 12.6906 94.5589 12.668 94.1595 12.6264V9.79356C94.6137 9.79356 95.0295 9.79356 95.375 9.79356V9.76912ZM100.199 12.8949C100.172 13.5299 100.284 14.1633 100.528 14.7547C100.772 15.346 101.143 15.8825 101.616 16.3298C102.088 16.7771 102.654 17.1257 103.276 17.3532C103.897 17.5806 104.562 17.682 105.227 17.6509C105.891 17.6737 106.552 17.5666 107.171 17.3363C107.789 17.106 108.352 16.7575 108.824 16.312C109.296 15.8666 109.668 15.3335 109.917 14.7459C110.165 14.1583 110.285 13.5283 110.269 12.8949C110.293 12.2593 110.179 11.6258 109.933 11.0344C109.688 10.4431 109.317 9.90682 108.843 9.45967C108.369 9.01251 107.803 8.66421 107.18 8.43686C106.558 8.20951 105.893 8.10816 105.227 8.13905C104.564 8.11719 103.904 8.22492 103.287 8.45564C102.669 8.68636 102.108 9.03507 101.637 9.48054C101.166 9.92601 100.795 10.4587 100.548 11.0459C100.301 11.6331 100.182 12.2624 100.199 12.8949ZM101.996 12.8949C101.977 12.4773 102.046 12.0603 102.201 11.6689C102.355 11.2776 102.59 10.9201 102.893 10.618C103.196 10.3159 103.56 10.0754 103.962 9.91116C104.365 9.74689 104.799 9.66224 105.237 9.66224C105.675 9.66224 106.108 9.74689 106.511 9.91116C106.914 10.0754 107.278 10.3159 107.581 10.618C107.883 10.9201 108.119 11.2776 108.274 11.6689C108.427 12.0603 108.497 12.4773 108.478 12.8949C108.478 14.7265 107.262 16.1369 105.234 16.1369C104.797 16.1323 104.365 16.0442 103.964 15.8777C103.563 15.7112 103.202 15.4695 102.901 15.1673C102.599 14.865 102.365 14.5082 102.211 14.118C102.056 13.7276 101.986 13.3117 102.003 12.8949H101.996ZM118.944 15.3981C118.284 15.8791 117.477 16.1387 116.647 16.1369C116.198 16.1566 115.75 16.0858 115.331 15.9291C114.913 15.7724 114.534 15.5333 114.219 15.2275C113.904 14.9216 113.659 14.5558 113.503 14.1538C113.345 13.752 113.279 13.323 113.307 12.8949C113.307 10.8924 114.664 9.65314 116.455 9.65314C117.232 9.63045 117.996 9.84429 118.637 10.2637L119.398 9.04261C118.568 8.40032 117.523 8.06824 116.455 8.10848C113.256 8.10848 111.51 10.2148 111.51 12.8646C111.472 13.4986 111.574 14.1332 111.811 14.7266C112.048 15.3202 112.414 15.8591 112.884 16.3081C113.356 16.7572 113.92 17.1062 114.542 17.3325C115.164 17.5586 115.829 17.6568 116.494 17.6204C117.627 17.6592 118.733 17.2861 119.59 16.5764L118.95 15.3554L118.944 15.3981ZM127.99 15.3981C127.332 15.8782 126.527 16.1379 125.699 16.1369C125.25 16.1575 124.801 16.0874 124.382 15.9311C123.962 15.7747 123.583 15.5359 123.267 15.2299C122.952 14.9239 122.706 14.5578 122.549 14.1555C122.391 13.7531 122.325 13.3235 122.353 12.8949C122.353 10.8924 123.71 9.65314 125.501 9.65314C126.278 9.63045 127.042 9.84429 127.683 10.2637L128.444 9.04261C127.614 8.40032 126.569 8.06824 125.501 8.10848C122.302 8.10848 120.556 10.2148 120.556 12.8646C120.518 13.4986 120.62 14.1332 120.857 14.7266C121.095 15.3202 121.461 15.8591 121.931 16.3081C122.402 16.7572 122.966 17.1062 123.588 17.3325C124.21 17.5586 124.875 17.6568 125.54 17.6204C126.673 17.6592 127.779 17.2861 128.636 16.5764L127.996 15.3554L127.99 15.3981ZM131.828 17.5045L136.901 10.9535V17.5045H138.597V8.27946H137.106L132.04 14.8426V8.27946H130.344V17.5045H131.828ZM142.768 17.5045L147.836 10.9535V17.5045H149.537V8.27946H148.046L142.979 14.8426V8.27946H141.277V17.5045H142.768ZM142.814 6.0326C142.909 7.15597 143.919 7.91919 145.577 7.91919C147.1 7.91919 148.232 7.16818 148.27 6.0326H146.683C146.626 6.6004 146.198 6.79576 145.577 6.79576C144.957 6.79576 144.515 6.54545 144.406 6.0326H142.814ZM158.935 15.3921C158.277 15.8721 157.473 16.1318 156.645 16.1308C156.195 16.1505 155.747 16.0796 155.328 15.9229C154.911 15.7663 154.531 15.5273 154.216 15.2213C153.901 14.9155 153.657 14.5498 153.5 14.1479C153.343 13.746 153.276 13.3169 153.305 12.8888C153.305 10.8863 154.661 9.64703 156.452 9.64703C157.229 9.62434 157.994 9.83818 158.634 10.2576L159.396 9.0365C158.566 8.39421 157.52 8.06213 156.452 8.10237C153.254 8.10237 151.507 10.2087 151.507 12.8585C151.469 13.4925 151.572 14.1271 151.809 14.7205C152.046 15.3141 152.411 15.853 152.883 16.3021C153.353 16.7511 153.918 17.1002 154.54 17.3264C155.161 17.5525 155.826 17.6506 156.491 17.6144C157.625 17.6531 158.731 17.28 159.587 16.5703L158.947 15.3493L158.935 15.3921ZM161.27 17.4984H162.971V12.7423L166.926 17.4984H169.081L164.852 12.5654L168.832 8.29168H166.785L162.946 12.6691V8.29168H161.251V17.5167L161.27 17.4984ZM172.044 17.4984L177.11 10.9474V17.4984H178.812V8.27334H177.303L172.235 14.8365V8.27334H170.534V17.4984H172.044ZM182.983 17.4984L188.05 10.9474V17.4984H189.752V8.27334H188.261L183.195 14.8365V8.27334H181.493V17.4984H182.983ZM183.028 6.02649C183.124 7.14986 184.135 7.91308 185.791 7.91308C187.315 7.91308 188.447 7.16207 188.485 6.02649H186.898C186.841 6.59428 186.412 6.78965 185.791 6.78965C185.171 6.78965 184.73 6.53934 184.615 6.02649H183.028Z" fill="#002E5E"/>
<path d="M187.017 36.5203H188.693V27.2975H187.209L182.162 33.859V27.2975H180.467V36.5203H181.952L186.998 29.9709V36.5203H187.017ZM187.444 25.0573H185.864C185.807 25.6249 185.38 25.8202 184.762 25.8202C184.144 25.8202 183.704 25.5699 183.596 25.0573H182.015C182.112 26.1804 183.118 26.9434 184.768 26.9434C186.285 26.9434 187.413 26.1925 187.451 25.0573H187.444ZM176.135 36.5203H177.811V27.2975H176.135V36.5203ZM174.861 33.3708C174.861 31.5396 173.72 30.392 171.337 30.392C170.979 30.3928 170.621 30.4152 170.266 30.4592V27.2975H168.577V36.5203C169.145 36.5203 170.063 36.5203 170.973 36.5203C173.433 36.5203 174.867 35.2995 174.867 33.3462L174.861 33.3708ZM173.07 33.4135C173.07 34.4939 172.432 35.031 171.158 35.031C170.827 35.031 170.522 35.0309 170.247 34.9943V31.9791C170.558 31.9411 170.871 31.9186 171.184 31.9118C172.369 31.9118 173.057 32.4247 173.057 33.4135H173.07ZM164.226 36.5264H165.901V27.3035H164.226V31.0696H159.823V27.3035H158.135V36.5264H159.823V32.5833H164.226V36.5264ZM153.535 28.8173H156.657V27.3035H148.743V28.8173H151.865V36.5264H153.56V28.8173H153.535ZM147.966 30.2393C147.966 28.7257 147.074 27.273 144.238 27.273C143.564 27.273 142.04 27.273 141.499 27.273V36.4958H143.193V33.1631C143.608 33.1998 144.156 33.1998 144.467 33.1998C146.768 33.1998 147.991 31.7777 147.991 30.209L147.966 30.2393ZM146.175 30.2393C146.175 31.2648 145.392 31.7288 144.385 31.7288C143.984 31.7259 143.585 31.7035 143.187 31.6616V28.8295C143.64 28.8295 144.054 28.8295 144.398 28.8295C145.551 28.8295 146.175 29.3056 146.175 30.2639V30.2393ZM139.543 31.924C139.568 31.2881 139.455 30.654 139.212 30.062C138.968 29.4701 138.598 28.9333 138.125 28.4855C137.653 28.0379 137.089 27.689 136.468 27.4614C135.849 27.2337 135.186 27.1322 134.522 27.1632C133.861 27.1413 133.203 27.2491 132.587 27.4802C131.972 27.7112 131.412 28.0604 130.943 28.5065C130.475 28.9524 130.106 29.4857 129.859 30.0736C129.614 30.6613 129.496 31.2911 129.513 31.924C129.487 32.5589 129.599 33.1922 129.842 33.7833C130.084 34.3745 130.453 34.9108 130.925 35.358C131.395 35.8053 131.959 36.1536 132.579 36.381C133.197 36.6084 133.859 36.7099 134.522 36.679C135.183 36.7016 135.841 36.5946 136.458 36.3644C137.073 36.1341 137.633 35.7857 138.104 35.3404C138.574 34.8949 138.944 34.3621 139.192 33.7745C139.439 33.1871 139.559 32.5573 139.543 31.924ZM137.752 31.924C137.752 33.7552 136.541 35.1653 134.515 35.1653C134.08 35.1606 133.651 35.0725 133.251 34.906C132.852 34.7396 132.492 34.498 132.192 34.1959C131.892 33.8937 131.658 33.537 131.504 33.1467C131.351 32.7566 131.28 32.3408 131.298 31.924C131.278 31.5065 131.348 31.0896 131.501 30.6984C131.654 30.3071 131.889 29.9497 132.19 29.6476C132.492 29.3456 132.854 29.1052 133.255 28.941C133.657 28.7767 134.088 28.6921 134.525 28.6921C134.962 28.6921 135.393 28.7767 135.795 28.941C136.195 29.1052 136.558 29.3456 136.859 29.6476C137.161 29.9497 137.395 30.3071 137.549 30.6984C137.702 31.0896 137.772 31.5065 137.752 31.924ZM125.863 36.5386H127.558V27.3158H119.88V36.5386H121.568V28.8295H125.863V36.5386ZM111.941 31.924C111.941 29.922 113.292 28.683 115.075 28.683C115.849 28.6603 116.611 28.8741 117.248 29.2934L118.006 28.0727C117.18 27.4305 116.139 27.0985 115.075 27.1388C111.89 27.1388 110.151 29.2445 110.151 31.8996C110.113 32.5335 110.215 33.1681 110.451 33.7614C110.687 34.3548 111.051 34.8935 111.52 35.3426C111.988 35.7915 112.551 36.1405 113.17 36.3666C113.79 36.5927 114.453 36.6908 115.113 36.6545C116.243 36.6932 117.344 36.3202 118.198 35.6108L117.561 34.39C116.903 34.8708 116.1 35.1304 115.273 35.1286C114.826 35.1482 114.38 35.0776 113.963 34.9209C113.547 34.7643 113.168 34.5252 112.855 34.2194C112.541 33.9136 112.298 33.548 112.141 33.1462C111.985 32.7443 111.919 32.3155 111.947 31.8875L111.941 31.924ZM109.393 36.5386L105.181 31.6066L109.144 27.334H107.136L103.314 31.7105V27.334H101.619V36.5569H103.314V31.802L107.245 36.5569L109.393 36.5386ZM99.6628 31.9118C99.6628 29.0369 97.6557 27.1691 94.8204 27.1691C93.6269 27.13 92.4561 27.4881 91.5071 28.1824L92.1443 29.4033C92.7958 28.9378 93.5872 28.6874 94.3998 28.6892C96.2158 28.6892 97.5347 29.5437 97.8659 31.0879H93.6288V32.6016H97.9615C97.8476 33.354 97.4407 34.0372 96.8225 34.5139C96.2043 34.9906 95.4208 35.2254 94.6292 35.1713C93.7332 35.1706 92.8622 34.8873 92.1507 34.3655L91.4243 35.7206C92.3587 36.3782 93.4957 36.7177 94.6547 36.6851C97.7385 36.6851 99.6882 34.7989 99.6882 31.9118H99.6628Z" fill="#002E5E"/>
<path d="M240.474 30.3329C240.474 28.7197 239.567 27.1718 236.684 27.1718C235.996 27.1718 234.447 27.1718 233.897 27.1718V36.9999H235.62V33.4485C236.042 33.4876 236.599 33.4876 236.916 33.4876C239.256 33.4876 240.5 31.9721 240.5 30.3004L240.474 30.3329ZM238.653 30.3329C238.653 31.4256 237.856 31.9201 236.833 31.9201C236.426 31.917 236.019 31.893 235.614 31.8485V28.8304C236.073 28.8304 236.495 28.8304 236.845 28.8304C238.018 28.8304 238.653 29.3377 238.653 30.3589V30.3329ZM229.223 28.8304H232.399V27.2173H224.325V28.8304H227.5V37.0455H229.244V28.8304H229.223ZM221.123 37.0455H222.834V27.2173H221.123V31.2305H216.645V27.2173H214.922V37.0455H216.645V32.8437H221.123V37.0455ZM206.865 37.0455H212.698V35.4324H208.615V32.8893H212.141V31.2762H208.615V28.8304H212.562V27.2173H206.898V37.0455H206.865ZM203.548 38.8017H205.155V35.4324H203.839V27.2173H202.115V35.4324H197.818V27.2173H196.095V37.0455H203.554V38.8017H203.548Z" fill="#002E5E"/>
<path d="M39.9335 0.745304L35.2353 2.46364L34.3942 0.740112L39.9335 0.745304Z" fill="#1C75BC"/>
<path d="M34.3944 0.740112L35.2355 2.46364L31.2094 3.92241L34.3944 0.740112Z" fill="#ED1C24"/>
<path d="M54.1748 1.14502L58.0313 6.4402L43.5522 5.15793L54.1748 1.14502Z" fill="#1C75BC"/>
<path d="M77.9156 0.745483L72.1653 2.96738L69.0864 0.745483H77.9156Z" fill="#1C75BC"/>
<path d="M31.2087 9.70068L26.6275 15.0841L20.8931 14.4819L31.2087 9.70068Z" fill="#1C75BC"/>
<path d="M26.6281 15.0843L20.8931 21.7189V14.4822L26.6281 15.0843Z" fill="#ED1C24"/>
<path d="M78.0068 0.745483L75.6577 5.47999L72.1659 2.96738L77.9168 0.745483H78.0068Z" fill="#ED1C24"/>
<path d="M9.57313 26.0215L9.09702 31.4049L0.521729 35.9629L9.57313 26.0215Z" fill="#1C75BC"/>
<path d="M9.09694 31.4049L8.45155 37.5047L0.500488 35.9837L9.09694 31.4049Z" fill="#ED1C24"/>
<path d="M61.0658 11.3304L69.1809 21.0019L55.6647 19.6003L61.0658 11.3304Z" fill="#1C75BC"/>
<path d="M69.1825 21.0027L49.4821 29.0596L55.6662 19.601L69.1825 21.0027Z" fill="#ED1C24"/>
<path d="M39.8576 32.542L20.8132 40.3705V28.3162L39.8576 32.542Z" fill="#ED1C24"/>
<path d="M63.1564 36.0825L57.5912 47.2594L54.634 39.5504L63.1564 36.0825Z" fill="#1C75BC"/>
<path d="M54.6347 39.5509L57.5918 47.2601L43.2239 44.3945L54.6347 39.5509Z" fill="#ED1C24"/>
<path d="M34.0691 16.1119L45.2629 11.8239L48.3365 17.5447L34.0691 16.1119Z" fill="#1C75BC"/>
<path d="M34.0691 16.1118L48.3365 17.5446L35.8413 22.4867L34.0691 16.1118Z" fill="#ED1C24"/>
</g>
<defs>
<clipPath id="clip0_98_1444">
<rect width="240" height="46.5199" fill="white" transform="translate(0.5 0.73999)"/>
</clipPath>
</defs>
</svg>
