<svg width="241" height="74" viewBox="0 0 241 74" fill="none" xmlns="http://www.w3.org/2000/svg">
<g clip-path="url(#clip0_98_1465)">
<g filter="url(#filter0_d_98_1465)">
<path d="M74.2631 36.1616C74.2631 55.5643 58.5342 71.2932 39.1315 71.2932C19.7288 71.2932 3.99988 55.5643 3.99988 36.1616C3.99988 16.7589 12.1857 54.3211 31.5883 54.3211C50.991 54.3211 74.2631 16.7589 74.2631 36.1616Z" fill="white"/>
</g>
<mask id="mask0_98_1465" style="mask-type:luminance" maskUnits="userSpaceOnUse" x="4" y="1" width="71" height="71">
<path d="M74.2632 36.3015C74.2632 16.8989 58.5342 1.16992 39.1316 1.16992C19.729 1.16992 4 16.8989 4 36.3015C4 55.7042 19.729 71.4331 39.1316 71.4331C58.5342 71.4331 74.2632 55.7042 74.2632 36.3015Z" fill="white"/>
</mask>
<g mask="url(#mask0_98_1465)">
<path d="M74.2637 36.3005C74.2637 16.8979 58.5347 1.16895 39.1321 1.16895C19.7294 1.16895 4.00049 16.8979 4.00049 36.3005C4.00049 55.7032 19.7294 71.4321 39.1321 71.4321C58.5347 71.4321 74.2637 55.7032 74.2637 36.3005Z" fill="url(#paint0_linear_98_1465)"/>
<path d="M42.2362 48.2102C66.4072 48.2102 86.0017 35.5089 86.0017 19.8412C86.0017 4.1734 66.4072 -8.52783 42.2362 -8.52783C18.0651 -8.52783 -1.52942 4.1734 -1.52942 19.8412C-1.52942 35.5089 18.0651 48.2102 42.2362 48.2102Z" fill="url(#paint1_linear_98_1465)"/>
<g filter="url(#filter1_f_98_1465)">
<path d="M59.6322 25.4982C59.6322 35.317 56.0169 41.1501 42.4067 25.4982C39.1128 20.6918 29.3912 27.7317 22.9391 24.2847C18.8496 22.1 18.4342 15.9647 21.9655 12.9605C25.5512 9.91008 31.7484 7.71973 38.9615 7.71973C50.3776 7.71973 59.6322 15.6794 59.6322 25.4982Z" fill="#046FB3"/>
</g>
<g filter="url(#filter2_f_98_1465)">
<path d="M59.6322 25.4982C59.6322 35.317 56.0169 41.1501 42.4067 25.4982C39.1128 20.6918 29.3912 27.7317 22.9391 24.2847C18.8496 22.1 18.4342 15.9647 21.9655 12.9605C25.5512 9.91008 31.7484 7.71973 38.9615 7.71973C50.3776 7.71973 59.6322 15.6794 59.6322 25.4982Z" fill="#046FB3"/>
</g>
<g filter="url(#filter3_f_98_1465)">
<path d="M59.6322 25.4982C59.6322 35.317 56.0169 41.1501 42.4067 25.4982C39.1128 20.6918 29.3912 27.7317 22.9391 24.2847C18.8496 22.1 18.4342 15.9647 21.9655 12.9605C25.5512 9.91008 31.7484 7.71973 38.9615 7.71973C50.3776 7.71973 59.6322 15.6794 59.6322 25.4982Z" fill="#046FB3"/>
</g>
<g filter="url(#filter4_f_98_1465)">
<path d="M59.6322 25.4982C59.6322 35.317 56.0169 41.1501 42.4067 25.4982C39.1128 20.6918 29.3912 27.7317 22.9391 24.2847C18.8496 22.1 18.4342 15.9647 21.9655 12.9605C25.5512 9.91008 31.7484 7.71973 38.9615 7.71973C50.3776 7.71973 59.6322 15.6794 59.6322 25.4982Z" fill="#046FB3"/>
</g>
<g filter="url(#filter5_f_98_1465)">
<path d="M59.6322 25.4982C59.6322 35.317 56.0169 41.1501 42.4067 25.4982C39.1128 20.6918 29.3912 27.7317 22.9391 24.2847C18.8496 22.1 18.4342 15.9647 21.9655 12.9605C25.5512 9.91008 31.7484 7.71973 38.9615 7.71973C50.3776 7.71973 59.6322 15.6794 59.6322 25.4982Z" fill="#046FB3"/>
</g>
<g filter="url(#filter6_f_98_1465)">
<path d="M59.6322 25.4982C59.6322 35.317 56.0169 41.1501 42.4067 25.4982C39.1128 20.6918 29.3912 27.7317 22.9391 24.2847C18.8496 22.1 18.4342 15.9647 21.9655 12.9605C25.5512 9.91008 31.7484 7.71973 38.9615 7.71973C50.3776 7.71973 59.6322 15.6794 59.6322 25.4982Z" fill="#046FB3"/>
</g>
<path d="M72.6461 36.3012C72.6461 17.7911 57.6408 2.78577 39.1307 2.78577C20.6207 2.78577 5.61536 17.7911 5.61536 36.3012C5.61536 54.8112 20.6207 69.8166 39.1307 69.8166C57.6408 69.8166 72.6461 54.8112 72.6461 36.3012Z" stroke="url(#paint2_linear_98_1465)" stroke-width="3.23244"/>
</g>
<path fill-rule="evenodd" clip-rule="evenodd" d="M54.1884 44.8381V35.057C51.0778 34.9879 47.1329 35.2718 43.5127 36.6294C40.553 37.7392 38.1132 39.153 35.7027 40.5498C32.5206 42.3937 29.3895 44.2081 25.18 45.2553C20.6823 51.6004 17.6106 55.9815 17.6106 55.9815C17.6106 55.9815 26.1356 56.2921 35.848 50.3532C36.2564 50.1035 36.6628 49.849 37.0694 49.5943L37.0697 49.5942C38.8759 48.4631 40.6853 47.33 42.6843 46.6057C49.2621 44.2223 54.1884 44.8381 54.1884 44.8381ZM46.1922 33.6096C49.2252 32.9344 51.9679 32.8285 54.1884 32.9516V23.2139C51.5959 23.1797 48.1784 23.2822 45.8521 23.9122C43.204 24.6292 40.0958 26.1177 38.1259 27.1397C34.1561 32.6417 30.2271 38.1467 26.8864 42.8503C29.9864 41.6085 33.0792 39.8958 36.0194 38.2677C39.7569 36.1981 43.2476 34.2651 46.1922 33.6096ZM40.5642 23.7682C42.4375 23.0312 44.6091 22.2408 46.4475 21.743C48.6947 21.1345 51.7902 21.0786 54.1884 21.1588V11.2376C54.1884 11.2376 50.4662 10.2535 46.2348 16.0012C44.4035 18.4888 42.4923 21.1087 40.5642 23.7682Z" fill="url(#paint3_linear_98_1465)"/>
<path d="M49.6798 55.6414C52.0523 55.6414 53.9755 53.7182 53.9755 51.3457C53.9755 48.9732 52.0523 47.0499 49.6798 47.0499C47.3073 47.0499 45.384 48.9732 45.384 51.3457C45.384 53.7182 47.3073 55.6414 49.6798 55.6414Z" fill="#F1F2F2"/>
<path d="M156.05 25.1261V40.2124H151.72V37.9076H148.372L151.161 33.9963H151.72V31.6914L148.682 35.9519L145.643 40.2124H140.335L150.882 25.1261H156.05Z" fill="#8C9192"/>
<path d="M101.851 25.1262V40.2126H97.5203V37.9077H94.1724L96.9616 33.9964H97.5203V31.6916L94.4821 35.9521L91.4439 40.2126H86.1357L96.6822 25.1262H101.851Z" fill="#8C9192"/>
<path d="M117.635 40.2124V25.1261H112.467L101.92 40.2124H107.228L110.267 35.9519L113.305 31.6914V33.9963V37.9076V40.2124H117.635Z" fill="#8C9192"/>
<path d="M140.266 29.1771V40.2124H135.936V37.9076V33.9963V31.6914V29.1771H131.326L134.12 25.1261H140.266H140.964H145.574L142.78 29.1771H140.266Z" fill="#8C9192"/>
<path d="M225.824 29.1771V40.2124H221.494V37.9076V33.9963V31.6914V29.1771H216.884L219.678 25.1261H225.824H226.523H231.132L228.339 29.1771H225.824Z" fill="#8C9192"/>
<path fill-rule="evenodd" clip-rule="evenodd" d="M123.852 25.127L119.522 31.6919V33.9967V37.908V40.2128H123.852H125.992C126.05 40.2129 126.108 40.2129 126.167 40.2129C126.196 40.2129 126.225 40.2128 126.254 40.2128H126.366C129.8 40.2128 132.583 37.4298 132.583 33.9967C132.583 30.5637 129.8 27.7806 126.366 27.7806H126.254L126.251 27.7806C125.756 27.7805 125.281 27.7804 124.83 27.8V31.6996C125.122 31.6811 125.405 31.6853 125.662 31.6891L125.662 31.6891L125.675 31.6892C125.77 31.6906 125.861 31.6919 125.947 31.6919C127.22 31.6919 128.252 32.7237 128.252 33.9967C128.252 35.2697 127.22 36.3016 125.947 36.3016C125.677 36.3016 125.418 36.3051 125.172 36.3084L125.131 36.309C124.655 36.3157 124.227 36.3217 123.852 36.3019V33.3682H123.852V25.127Z" fill="#8C9192"/>
<path fill-rule="evenodd" clip-rule="evenodd" d="M203.335 25.2659H207.665H209.805H210.068H210.179C213.613 25.2659 216.396 28.049 216.396 31.482C216.396 34.9151 213.613 37.6981 210.179 37.6981H210.068C209.572 37.6983 209.096 37.6984 208.644 37.6788V33.7793C208.936 33.7977 209.219 33.7936 209.475 33.7898C209.575 33.7882 209.671 33.7869 209.76 33.7869C211.033 33.7869 212.065 32.755 212.065 31.482C212.065 30.209 211.033 29.1771 209.76 29.1771C209.475 29.1771 209.203 29.1734 208.945 29.1697C208.468 29.163 208.041 29.157 207.665 29.1769V32.809V33.6034C207.665 33.6035 207.666 33.6036 207.666 33.6037V37.5926C207.666 37.5926 207.665 37.5926 207.665 37.5925V40.2125H203.335V31.482V27.5707V25.2659Z" fill="#8C9192"/>
<path fill-rule="evenodd" clip-rule="evenodd" d="M202.078 29.1723V25.2659H201.404H201.141H201.03C197.596 25.2659 194.813 28.049 194.813 31.482C194.813 34.9151 197.596 37.6981 201.03 37.6981C201.104 37.6981 201.177 37.6981 201.25 37.6981C202.146 37.6982 202.903 37.6983 203.544 37.6819V40.2125H206.757V36.6407C207.099 35.9868 207.131 34.9288 207.184 33.2168C207.2 32.7003 207.217 32.1244 207.246 31.482C207.324 29.7176 207.14 28.454 206.757 27.5489V25.2659H203.544H203.335V29.1685C203.406 29.1705 203.476 29.1733 203.544 29.1769V32.809V33.6034C202.934 33.8074 202.274 33.7977 201.734 33.7898C201.634 33.7882 201.539 33.7869 201.449 33.7869C200.176 33.7869 199.144 32.755 199.144 31.482C199.144 30.209 200.176 29.1771 201.449 29.1771C201.667 29.1771 201.876 29.175 202.078 29.1723Z" fill="#8C9192"/>
<path d="M161.288 35.4631C162.831 35.4631 164.082 34.2123 164.082 32.6694C164.082 31.1264 162.831 29.8756 161.288 29.8756C159.745 29.8756 158.494 31.1264 158.494 32.6694C158.494 34.2123 159.745 35.4631 161.288 35.4631Z" fill="#8C9192"/>
<path fill-rule="evenodd" clip-rule="evenodd" d="M186.642 40.2123C190.846 40.2123 194.255 36.804 194.255 32.5993C194.255 28.3947 190.846 24.9863 186.642 24.9863C182.437 24.9863 179.029 28.3947 179.029 32.5993C179.029 36.804 182.437 40.2123 186.642 40.2123ZM186.642 36.0217C188.3 36.0217 189.645 34.552 189.645 32.739C189.645 30.926 188.3 29.4564 186.642 29.4564C184.984 29.4564 183.638 30.926 183.638 32.739C183.638 34.552 184.984 36.0217 186.642 36.0217Z" fill="#8C9192"/>
<path fill-rule="evenodd" clip-rule="evenodd" d="M174.49 24.9867C176.457 24.9867 178.274 24.9924 179.952 25.0037L177.647 29.338L177.618 29.3947C177.011 29.3932 176.379 29.3923 175.718 29.3923C173.343 29.3923 171.417 30.8596 171.417 32.6695C171.417 34.4795 173.343 35.9468 175.718 35.9468C176.349 35.9468 176.94 35.9448 177.493 35.9412V40.2043C176.545 40.2099 175.545 40.2127 174.49 40.2127C170.285 40.2127 166.877 36.8043 166.877 32.5997C166.877 28.3951 170.285 24.9867 174.49 24.9867Z" fill="#8C9192"/>
<path d="M86.7489 51.667V46.093H88.7902C89.1858 46.093 89.5132 46.1582 89.7727 46.289C90.0321 46.4178 90.2263 46.5928 90.3552 46.8142C90.484 47.0338 90.5484 47.2815 90.5484 47.5572C90.5484 47.7895 90.5058 47.9855 90.4205 48.1452C90.3353 48.303 90.2209 48.43 90.0775 48.5262C89.936 48.6205 89.78 48.6895 89.6094 48.733V48.7874C89.7945 48.7965 89.975 48.8564 90.151 48.9671C90.3288 49.0759 90.4758 49.2311 90.592 49.4325C90.7081 49.634 90.7662 49.8788 90.7662 50.1674C90.7662 50.4522 90.699 50.7082 90.5648 50.9349C90.4323 51.1599 90.2273 51.3386 89.9496 51.4711C89.672 51.6017 89.3174 51.667 88.8854 51.667H86.7489ZM87.59 50.9458H88.8039C89.2066 50.9458 89.4952 50.8678 89.6694 50.7118C89.8436 50.5556 89.9306 50.3606 89.9306 50.1265C89.9306 49.9505 89.8862 49.789 89.7972 49.6421C89.7083 49.4951 89.5814 49.378 89.4163 49.291C89.2528 49.2039 89.0588 49.1603 88.8338 49.1603H87.59V50.9458ZM87.59 48.5044H88.7167C88.9054 48.5044 89.075 48.4681 89.2257 48.3955C89.3781 48.323 89.4988 48.2213 89.5876 48.0907C89.6783 47.9583 89.7237 47.8022 89.7237 47.6226C89.7237 47.3921 89.643 47.1989 89.4815 47.0429C89.32 46.8868 89.0723 46.8088 88.7385 46.8088H87.59V48.5044ZM93.4592 51.7513C93.0547 51.7513 92.7063 51.6598 92.4141 51.4766C92.1238 51.2915 91.9006 51.0366 91.7446 50.7118C91.5885 50.3869 91.5106 50.015 91.5106 49.5958C91.5106 49.1712 91.5904 48.7965 91.75 48.4717C91.9097 48.1452 92.1347 47.8902 92.425 47.707C92.7154 47.5237 93.0574 47.432 93.4512 47.432C93.7687 47.432 94.0517 47.491 94.3003 47.6089C94.549 47.7251 94.7494 47.8884 94.9018 48.0989C95.056 48.3093 95.1477 48.5551 95.1767 48.8365H94.3847C94.3411 48.6405 94.2414 48.4717 94.0853 48.3302C93.9311 48.1887 93.7242 48.1179 93.4647 48.1179C93.238 48.1179 93.0392 48.1778 92.8686 48.2976C92.6999 48.4155 92.5685 48.5842 92.474 48.8038C92.3797 49.0216 92.3325 49.2791 92.3325 49.5768C92.3325 49.8816 92.3788 50.1447 92.4714 50.3661C92.5638 50.5875 92.6945 50.7589 92.8632 50.8805C93.0338 51.0021 93.2344 51.0628 93.4647 51.0628C93.6189 51.0628 93.7587 51.0347 93.8839 50.9785C94.0109 50.9203 94.117 50.8378 94.2024 50.7308C94.2894 50.6238 94.3502 50.4949 94.3847 50.3443H95.1767C95.1477 50.6147 95.0597 50.8559 94.9127 51.0683C94.7658 51.2806 94.5688 51.4475 94.3221 51.5691C94.0771 51.6906 93.7895 51.7513 93.4592 51.7513ZM97.8488 51.7513C97.4369 51.7513 97.0822 51.6635 96.7845 51.4875C96.4888 51.3097 96.2601 51.0602 96.0987 50.7389C95.939 50.4159 95.8592 50.0376 95.8592 49.6039C95.8592 49.1758 95.939 48.7983 96.0987 48.4717C96.2601 48.1452 96.4852 47.8902 96.7736 47.707C97.064 47.5237 97.4033 47.432 97.7915 47.432C98.0275 47.432 98.2561 47.471 98.4774 47.5491C98.6988 47.6271 98.8976 47.7496 99.0735 47.9165C99.2495 48.0834 99.3883 48.3002 99.49 48.567C99.5916 48.8319 99.6424 49.154 99.6424 49.5332V49.8217H96.3191V49.2121H98.8449C98.8449 48.998 98.8013 48.8084 98.7143 48.6431C98.6272 48.4762 98.5047 48.3448 98.3468 48.2485C98.1908 48.1524 98.0075 48.1044 97.797 48.1044C97.5685 48.1044 97.3688 48.1605 97.1983 48.2731C97.0295 48.3837 96.8989 48.5289 96.8063 48.7085C96.7157 48.8863 96.6703 49.0795 96.6703 49.2882V49.7646C96.6703 50.0439 96.7193 50.2817 96.8172 50.4777C96.917 50.6737 97.0558 50.8233 97.2336 50.9268C97.4115 51.0283 97.6192 51.0792 97.8569 51.0792C98.0111 51.0792 98.1518 51.0574 98.2788 51.0138C98.4058 50.9685 98.5155 50.9013 98.6082 50.8124C98.7006 50.7235 98.7715 50.6137 98.8203 50.4831L99.5907 50.622C99.529 50.8487 99.4182 51.0475 99.2585 51.218C99.1007 51.3868 98.9021 51.5182 98.6625 51.6126C98.4249 51.7051 98.1536 51.7513 97.8488 51.7513ZM102.165 52.8728V50.9621H102.506C102.593 50.8823 102.666 50.7871 102.726 50.6763C102.788 50.5657 102.839 50.4341 102.881 50.2817C102.925 50.1293 102.961 49.9515 102.99 49.7482C103.019 49.5432 103.045 49.3092 103.066 49.046L103.197 47.4865H106.038V50.9621H106.681V52.8728H105.886V51.667H102.971V52.8728H102.165ZM103.377 50.9621H105.244V48.1833H103.926L103.839 49.046C103.798 49.4852 103.745 49.8661 103.681 50.1892C103.618 50.5104 103.516 50.7679 103.377 50.9621ZM107.147 51.667L107.144 50.9621H107.294C107.41 50.9621 107.507 50.9377 107.585 50.8886C107.665 50.8378 107.73 50.7526 107.781 50.6327C107.832 50.513 107.871 50.3479 107.898 50.1374C107.925 49.9252 107.945 49.6584 107.958 49.3373L108.031 47.4865H110.949V51.667H110.152V48.1887H108.785L108.72 49.6094C108.704 49.9541 108.668 50.2554 108.614 50.513C108.561 50.7707 108.484 50.9857 108.382 51.1581C108.281 51.3286 108.15 51.4566 107.991 51.5418C107.831 51.6253 107.637 51.667 107.408 51.667H107.147ZM114.527 51.667V48.1805H113.526C113.288 48.1805 113.103 48.2358 112.971 48.3466C112.838 48.4572 112.772 48.6024 112.772 48.782C112.772 48.9598 112.833 49.1031 112.954 49.2121C113.078 49.3191 113.25 49.3726 113.471 49.3726H114.764V50.0312H113.471C113.163 50.0312 112.896 49.9805 112.671 49.8788C112.448 49.7755 112.276 49.6293 112.154 49.4406C112.034 49.2519 111.975 49.0288 111.975 48.7711C111.975 48.5081 112.036 48.2812 112.16 48.0907C112.285 47.8983 112.463 47.7496 112.696 47.6444C112.93 47.539 113.207 47.4865 113.526 47.4865H115.292V51.667H114.527ZM111.784 51.667L112.963 49.555H113.795L112.617 51.667H111.784ZM117.996 52.8728V50.9621H118.336C118.423 50.8823 118.496 50.7871 118.556 50.6763C118.618 50.5657 118.67 50.4341 118.711 50.2817C118.755 50.1293 118.791 49.9515 118.82 49.7482C118.849 49.5432 118.875 49.3092 118.896 49.046L119.027 47.4865H121.869V50.9621H122.511V52.8728H121.716V51.667H118.801V52.8728H117.996ZM119.207 50.9621H121.074V48.1833H119.757L119.67 49.046C119.628 49.4852 119.575 49.8661 119.512 50.1892C119.448 50.5104 119.347 50.7679 119.207 50.9621ZM125.108 51.7513C124.696 51.7513 124.342 51.6635 124.044 51.4875C123.748 51.3097 123.52 51.0602 123.358 50.7389C123.198 50.4159 123.119 50.0376 123.119 49.6039C123.119 49.1758 123.198 48.7983 123.358 48.4717C123.52 48.1452 123.745 47.8902 124.033 47.707C124.323 47.5237 124.663 47.432 125.051 47.432C125.287 47.432 125.515 47.471 125.737 47.5491C125.958 47.6271 126.157 47.7496 126.333 47.9165C126.509 48.0834 126.648 48.3002 126.749 48.567C126.851 48.8319 126.902 49.154 126.902 49.5332V49.8217H123.579V49.2121H126.104C126.104 48.998 126.061 48.8084 125.974 48.6431C125.887 48.4762 125.764 48.3448 125.606 48.2485C125.45 48.1524 125.267 48.1044 125.056 48.1044C124.828 48.1044 124.628 48.1605 124.458 48.2731C124.289 48.3837 124.158 48.5289 124.066 48.7085C123.975 48.8863 123.93 49.0795 123.93 49.2882V49.7646C123.93 50.0439 123.979 50.2817 124.077 50.4777C124.176 50.6737 124.315 50.8233 124.493 50.9268C124.671 51.0283 124.879 51.0792 125.116 51.0792C125.271 51.0792 125.411 51.0574 125.538 51.0138C125.665 50.9685 125.775 50.9013 125.867 50.8124C125.96 50.7235 126.031 50.6137 126.08 50.4831L126.85 50.622C126.788 50.8487 126.678 51.0475 126.518 51.218C126.36 51.3868 126.161 51.5182 125.922 51.6126C125.684 51.7051 125.413 51.7513 125.108 51.7513ZM127.805 51.667V47.4865H128.619V49.2393H129.01L130.39 47.4865H131.397L129.778 49.5195L131.416 51.667H130.407L129.147 49.9959H128.619V51.667H127.805ZM131.719 51.667L131.717 50.9621H131.866C131.982 50.9621 132.079 50.9377 132.157 50.8886C132.237 50.8378 132.303 50.7526 132.353 50.6327C132.404 50.513 132.443 50.3479 132.47 50.1374C132.498 49.9252 132.518 49.6584 132.53 49.3373L132.604 47.4865H135.521V51.667H134.724V48.1887H133.358L133.292 49.6094C133.276 49.9541 133.241 50.2554 133.186 50.513C133.134 50.7707 133.057 50.9857 132.955 51.1581C132.853 51.3286 132.723 51.4566 132.563 51.5418C132.403 51.6253 132.209 51.667 131.981 51.667H131.719ZM137.823 51.7596C137.558 51.7596 137.319 51.7106 137.105 51.6126C136.891 51.5128 136.721 51.3686 136.596 51.1799C136.472 50.9912 136.411 50.7598 136.411 50.4858C136.411 50.25 136.456 50.0558 136.547 49.9034C136.638 49.751 136.76 49.6303 136.914 49.5413C137.069 49.4525 137.241 49.3853 137.431 49.3399C137.622 49.2946 137.816 49.2601 138.014 49.2365C138.264 49.2075 138.468 49.1839 138.624 49.1657C138.78 49.1459 138.893 49.114 138.964 49.0706C139.035 49.027 139.07 48.9562 139.07 48.8583V48.8391C139.07 48.6015 139.003 48.4173 138.869 48.2867C138.736 48.156 138.538 48.0907 138.275 48.0907C138.001 48.0907 137.785 48.1514 137.627 48.2731C137.471 48.3928 137.363 48.5262 137.303 48.6732L136.539 48.499C136.629 48.2449 136.762 48.0398 136.936 47.8838C137.112 47.7259 137.314 47.6117 137.543 47.5409C137.772 47.4684 138.012 47.432 138.264 47.432C138.431 47.432 138.608 47.452 138.795 47.492C138.984 47.53 139.16 47.6008 139.323 47.7042C139.488 47.8077 139.623 47.9555 139.729 48.1478C139.834 48.3383 139.886 48.586 139.886 48.891V51.667H139.092V51.0955H139.059C139.006 51.2007 138.928 51.3042 138.822 51.4058C138.717 51.5073 138.582 51.5917 138.417 51.6589C138.252 51.7261 138.054 51.7596 137.823 51.7596ZM138 51.1064C138.225 51.1064 138.418 51.0618 138.577 50.973C138.739 50.8842 138.861 50.7679 138.945 50.6246C139.03 50.4795 139.073 50.3243 139.073 50.1592V49.6203C139.044 49.6493 138.987 49.6766 138.904 49.702C138.822 49.7256 138.729 49.7464 138.624 49.7646C138.518 49.7809 138.416 49.7963 138.316 49.8108C138.216 49.8235 138.133 49.8344 138.066 49.8435C137.908 49.8635 137.763 49.897 137.633 49.9442C137.504 49.9914 137.401 50.0594 137.322 50.1483C137.246 50.2354 137.208 50.3515 137.208 50.4967C137.208 50.6981 137.283 50.8505 137.431 50.954C137.58 51.0556 137.77 51.1064 138 51.1064ZM140.97 53.2347V47.4865H141.765V48.1642H141.833C141.88 48.0771 141.948 47.9764 142.037 47.8621C142.126 47.7477 142.25 47.648 142.407 47.5627C142.565 47.4756 142.774 47.432 143.033 47.432C143.371 47.432 143.672 47.5174 143.937 47.688C144.202 47.8585 144.41 48.1044 144.56 48.4255C144.713 48.7467 144.789 49.1332 144.789 49.5849C144.789 50.0367 144.713 50.4242 144.563 50.7471C144.413 51.0683 144.205 51.3159 143.942 51.4901C143.679 51.6625 143.379 51.7487 143.042 51.7487C142.788 51.7487 142.58 51.7061 142.418 51.6207C142.259 51.5355 142.133 51.4357 142.043 51.3214C141.952 51.2071 141.882 51.1054 141.833 51.0166H141.784V53.2347H140.97ZM141.768 49.5768C141.768 49.8707 141.81 50.1283 141.896 50.3497C141.981 50.5711 142.104 50.7443 142.266 50.8696C142.427 50.993 142.625 51.0547 142.859 51.0547C143.102 51.0547 143.306 50.9902 143.469 50.8614C143.632 50.7308 143.755 50.5538 143.839 50.3307C143.924 50.1075 143.967 49.8562 143.967 49.5768C143.967 49.3009 143.926 49.0533 143.842 48.8337C143.761 48.6142 143.637 48.4409 143.472 48.3139C143.308 48.1869 143.104 48.1234 142.859 48.1234C142.623 48.1234 142.424 48.1841 142.26 48.3057C142.099 48.4273 141.976 48.5969 141.893 48.8147C141.81 49.0325 141.768 49.2864 141.768 49.5768ZM146.918 51.7596C146.652 51.7596 146.413 51.7106 146.198 51.6126C145.985 51.5128 145.816 51.3686 145.69 51.1799C145.567 50.9912 145.504 50.7598 145.504 50.4858C145.504 50.25 145.55 50.0558 145.641 49.9034C145.732 49.751 145.855 49.6303 146.008 49.5413C146.162 49.4525 146.335 49.3853 146.525 49.3399C146.717 49.2946 146.911 49.2601 147.108 49.2365C147.358 49.2075 147.562 49.1839 147.718 49.1657C147.873 49.1459 147.986 49.114 148.058 49.0706C148.129 49.027 148.164 48.9562 148.164 48.8583V48.8391C148.164 48.6015 148.097 48.4173 147.963 48.2867C147.83 48.156 147.633 48.0907 147.369 48.0907C147.095 48.0907 146.879 48.1514 146.721 48.2731C146.566 48.3928 146.457 48.5262 146.398 48.6732L145.633 48.499C145.723 48.2449 145.856 48.0398 146.031 47.8838C146.207 47.7259 146.408 47.6117 146.637 47.5409C146.866 47.4684 147.106 47.432 147.358 47.432C147.525 47.432 147.703 47.452 147.888 47.492C148.077 47.53 148.253 47.6008 148.417 47.7042C148.583 47.8077 148.717 47.9555 148.823 48.1478C148.928 48.3383 148.981 48.586 148.981 48.891V51.667H148.186V51.0955H148.153C148.101 51.2007 148.021 51.3042 147.916 51.4058C147.81 51.5073 147.676 51.5917 147.51 51.6589C147.345 51.7261 147.148 51.7596 146.918 51.7596ZM147.094 51.1064C147.319 51.1064 147.511 51.0618 147.671 50.973C147.833 50.8842 147.956 50.7679 148.038 50.6246C148.125 50.4795 148.166 50.3243 148.166 50.1592V49.6203C148.137 49.6493 148.081 49.6766 147.997 49.702C147.916 49.7256 147.823 49.7464 147.718 49.7646C147.612 49.7809 147.51 49.7963 147.409 49.8108C147.31 49.8235 147.226 49.8344 147.159 49.8435C147.001 49.8635 146.858 49.897 146.726 49.9442C146.598 49.9914 146.494 50.0594 146.416 50.1483C146.341 50.2354 146.302 50.3515 146.302 50.4967C146.302 50.6981 146.377 50.8505 146.525 50.954C146.675 51.0556 146.863 51.1064 147.094 51.1064ZM152.898 49.2256V49.9307H150.633V49.2256H152.898ZM150.861 47.4865V51.667H150.065V47.4865H150.861ZM153.466 47.4865V51.667H152.671V47.4865H153.466ZM154.036 48.1887V47.4865H157.563V48.1887H156.2V51.667H155.405V48.1887H154.036ZM159.991 51.7513C159.599 51.7513 159.258 51.6617 158.964 51.482C158.672 51.3024 158.446 51.0511 158.284 50.728C158.123 50.405 158.042 50.0276 158.042 49.5958C158.042 49.1621 158.123 48.783 158.284 48.4582C158.446 48.1333 158.672 47.8811 158.964 47.7015C159.258 47.5219 159.599 47.432 159.991 47.432C160.384 47.432 160.724 47.5219 161.018 47.7015C161.31 47.8811 161.536 48.1333 161.698 48.4582C161.859 48.783 161.94 49.1621 161.94 49.5958C161.94 50.0276 161.859 50.405 161.698 50.728C161.536 51.0511 161.31 51.3024 161.018 51.482C160.724 51.6617 160.384 51.7513 159.991 51.7513ZM159.994 51.0683C160.248 51.0683 160.458 51.0011 160.625 50.8668C160.792 50.7326 160.916 50.5538 160.995 50.3307C161.076 50.1075 161.118 49.8616 161.118 49.593C161.118 49.3264 161.076 49.0813 160.995 48.8583C160.916 48.6332 160.792 48.4527 160.625 48.3166C160.458 48.1805 160.248 48.1125 159.994 48.1125C159.738 48.1125 159.526 48.1805 159.357 48.3166C159.191 48.4527 159.066 48.6332 158.984 48.8583C158.904 49.0813 158.864 49.3264 158.864 49.593C158.864 49.8616 158.904 50.1075 158.984 50.3307C159.066 50.5538 159.191 50.7326 159.357 50.8668C159.526 51.0011 159.738 51.0683 159.994 51.0683ZM162.848 51.667V47.4865H164.581C165.053 47.4865 165.428 47.5872 165.703 47.7885C165.98 47.9881 166.116 48.2594 166.116 48.6024C166.116 48.8474 166.04 49.0415 165.883 49.1849C165.727 49.3282 165.52 49.4243 165.263 49.4733C165.449 49.4951 165.621 49.5514 165.777 49.6421C165.933 49.731 166.058 49.8507 166.153 50.0013C166.249 50.1519 166.297 50.3316 166.297 50.5402C166.297 50.7617 166.239 50.9576 166.125 51.1282C166.01 51.2969 165.845 51.4294 165.628 51.5255C165.411 51.6199 165.151 51.667 164.845 51.667H162.848ZM163.613 50.9866H164.845C165.048 50.9866 165.206 50.9385 165.32 50.8424C165.433 50.7461 165.491 50.6155 165.491 50.4504C165.491 50.2563 165.433 50.1039 165.32 49.9932C165.206 49.8806 165.048 49.8245 164.845 49.8245H163.613V50.9866ZM163.613 49.2284H164.59C164.742 49.2284 164.873 49.2066 164.982 49.1631C165.093 49.1195 165.178 49.0579 165.235 48.978C165.295 48.8964 165.324 48.8002 165.324 48.6895C165.324 48.528 165.259 48.4019 165.126 48.3111C164.993 48.2204 164.812 48.175 164.581 48.175H163.613V49.2284ZM170.015 50.5267L171.858 47.4865H172.735V51.667H171.937V48.6241L170.102 51.667H169.218V47.4865H170.015V50.5267ZM176.371 53.2347C176.249 53.2347 176.139 53.2248 176.038 53.2048C175.939 53.1866 175.865 53.1667 175.816 53.1449L176.012 52.4781C176.16 52.5181 176.293 52.5353 176.409 52.5298C176.526 52.5244 176.628 52.4808 176.717 52.3992C176.807 52.3175 176.888 52.1841 176.956 51.9992L177.057 51.7215L175.527 47.4865H176.399L177.458 50.7308H177.501L178.56 47.4865H179.433L177.711 52.225C177.631 52.4427 177.529 52.6269 177.405 52.7775C177.282 52.9299 177.135 53.0443 176.965 53.1204C176.794 53.1967 176.596 53.2347 176.371 53.2347ZM183.434 47.4865V51.667H182.639V47.4865H183.434ZM183.089 49.4271V50.1293C182.963 50.1801 182.83 50.2254 182.69 50.2653C182.551 50.3035 182.404 50.3334 182.25 50.3552C182.095 50.377 181.935 50.3878 181.768 50.3878C181.252 50.3878 180.84 50.2617 180.535 50.0096C180.231 49.7555 180.078 49.3671 180.078 48.8446V47.4783H180.87V48.8446C180.87 49.0424 180.907 49.203 180.979 49.3264C181.052 49.4497 181.155 49.5405 181.289 49.5985C181.423 49.6566 181.583 49.6856 181.768 49.6856C182.013 49.6856 182.239 49.663 182.446 49.6176C182.654 49.5704 182.869 49.5068 183.089 49.4271ZM185.733 51.7596C185.469 51.7596 185.229 51.7106 185.015 51.6126C184.801 51.5128 184.631 51.3686 184.505 51.1799C184.382 50.9912 184.321 50.7598 184.321 50.4858C184.321 50.25 184.365 50.0558 184.456 49.9034C184.547 49.751 184.67 49.6303 184.823 49.5413C184.979 49.4525 185.15 49.3853 185.342 49.3399C185.532 49.2946 185.726 49.2601 185.924 49.2365C186.174 49.2075 186.377 49.1839 186.533 49.1657C186.69 49.1459 186.803 49.114 186.874 49.0706C186.944 49.027 186.98 48.9562 186.98 48.8583V48.8391C186.98 48.6015 186.913 48.4173 186.778 48.2867C186.646 48.156 186.448 48.0907 186.185 48.0907C185.91 48.0907 185.695 48.1514 185.537 48.2731C185.381 48.3928 185.273 48.5262 185.213 48.6732L184.449 48.499C184.539 48.2449 184.671 48.0398 184.846 47.8838C185.022 47.7259 185.224 47.6117 185.453 47.5409C185.681 47.4684 185.921 47.432 186.174 47.432C186.34 47.432 186.518 47.452 186.705 47.492C186.894 47.53 187.07 47.6008 187.233 47.7042C187.398 47.8077 187.533 47.9555 187.638 48.1478C187.743 48.3383 187.796 48.586 187.796 48.891V51.667H187.001V51.0955H186.969C186.916 51.2007 186.838 51.3042 186.732 51.4058C186.627 51.5073 186.491 51.5917 186.327 51.6589C186.162 51.7261 185.963 51.7596 185.733 51.7596ZM185.91 51.1064C186.135 51.1064 186.328 51.0618 186.487 50.973C186.649 50.8842 186.771 50.7679 186.855 50.6246C186.94 50.4795 186.983 50.3243 186.983 50.1592V49.6203C186.954 49.6493 186.896 49.6766 186.814 49.702C186.732 49.7256 186.638 49.7464 186.533 49.7646C186.428 49.7809 186.325 49.7963 186.226 49.8108C186.125 49.8235 186.043 49.8344 185.976 49.8435C185.818 49.8635 185.673 49.897 185.543 49.9442C185.414 49.9914 185.311 50.0594 185.233 50.1483C185.156 50.2354 185.118 50.3515 185.118 50.4967C185.118 50.6981 185.192 50.8505 185.342 50.954C185.49 51.0556 185.68 51.1064 185.91 51.1064ZM190.641 51.7513C190.236 51.7513 189.889 51.6598 189.595 51.4766C189.306 51.2915 189.083 51.0366 188.926 50.7118C188.77 50.3869 188.693 50.015 188.693 49.5958C188.693 49.1712 188.772 48.7965 188.932 48.4717C189.091 48.1452 189.316 47.8902 189.606 47.707C189.897 47.5237 190.239 47.432 190.633 47.432C190.95 47.432 191.234 47.491 191.482 47.6089C191.731 47.7251 191.931 47.8884 192.083 48.0989C192.238 48.3093 192.329 48.5551 192.358 48.8365H191.566C191.523 48.6405 191.424 48.4717 191.267 48.3302C191.112 48.1887 190.906 48.1179 190.647 48.1179C190.419 48.1179 190.221 48.1778 190.051 48.2976C189.882 48.4155 189.75 48.5842 189.655 48.8038C189.562 49.0216 189.514 49.2791 189.514 49.5768C189.514 49.8816 189.56 50.1447 189.653 50.3661C189.746 50.5875 189.876 50.7589 190.045 50.8805C190.215 51.0021 190.417 51.0628 190.647 51.0628C190.801 51.0628 190.94 51.0347 191.066 50.9785C191.193 50.9203 191.299 50.8378 191.385 50.7308C191.471 50.6238 191.531 50.4949 191.566 50.3443H192.358C192.329 50.6147 192.241 50.8559 192.094 51.0683C191.948 51.2806 191.751 51.4475 191.503 51.5691C191.259 51.6906 190.971 51.7513 190.641 51.7513ZM192.913 48.1887V47.4865H196.44V48.1887H195.077V51.667H194.282V48.1887H192.913ZM200.133 49.2256V49.9307H197.869V49.2256H200.133ZM198.098 47.4865V51.667H197.3V47.4865H198.098ZM200.703 47.4865V51.667H199.908V47.4865H200.703ZM202.589 50.5267L204.432 47.4865H205.307V51.667H204.51V48.6241L202.676 51.667H201.791V47.4865H202.589V50.5267ZM206.403 51.667V47.4865H207.216V49.2393H207.608L208.988 47.4865H209.994L208.375 49.5195L210.013 51.667H209.004L207.744 49.9959H207.216V51.667H206.403ZM212.235 51.7513C211.842 51.7513 211.501 51.6617 211.208 51.482C210.916 51.3024 210.69 51.0511 210.528 50.728C210.367 50.405 210.286 50.0276 210.286 49.5958C210.286 49.1621 210.367 48.783 210.528 48.4582C210.69 48.1333 210.916 47.8811 211.208 47.7015C211.501 47.5219 211.842 47.432 212.235 47.432C212.627 47.432 212.968 47.5219 213.261 47.7015C213.553 47.8811 213.779 48.1333 213.942 48.4582C214.102 48.783 214.183 49.1621 214.183 49.5958C214.183 50.0276 214.102 50.405 213.942 50.728C213.779 51.0511 213.553 51.3024 213.261 51.482C212.968 51.6617 212.627 51.7513 212.235 51.7513ZM212.237 51.0683C212.492 51.0683 212.701 51.0011 212.869 50.8668C213.035 50.7326 213.159 50.5538 213.239 50.3307C213.32 50.1075 213.362 49.8616 213.362 49.593C213.362 49.3264 213.32 49.0813 213.239 48.8583C213.159 48.6332 213.035 48.4527 212.869 48.3166C212.701 48.1805 212.492 48.1125 212.237 48.1125C211.982 48.1125 211.769 48.1805 211.6 48.3166C211.434 48.4527 211.31 48.6332 211.227 48.8583C211.148 49.0813 211.107 49.3264 211.107 49.593C211.107 49.8616 211.148 50.1075 211.227 50.3307C211.31 50.5538 211.434 50.7326 211.6 50.8668C211.769 51.0011 211.982 51.0683 212.237 51.0683ZM215.091 51.667V47.4865H216.826C217.297 47.4865 217.671 47.5872 217.946 47.7885C218.223 47.9881 218.36 48.2594 218.36 48.6024C218.36 48.8474 218.283 49.0415 218.127 49.1849C217.97 49.3282 217.763 49.4243 217.506 49.4733C217.692 49.4951 217.864 49.5514 218.02 49.6421C218.177 49.731 218.301 49.8507 218.396 50.0013C218.493 50.1519 218.54 50.3316 218.54 50.5402C218.54 50.7617 218.483 50.9576 218.368 51.1282C218.254 51.2969 218.089 51.4294 217.871 51.5255C217.654 51.6199 217.395 51.667 217.09 51.667H215.091ZM215.857 50.9866H217.09C217.291 50.9866 217.449 50.9385 217.564 50.8424C217.677 50.7461 217.734 50.6155 217.734 50.4504C217.734 50.2563 217.677 50.1039 217.564 49.9932C217.449 49.8806 217.291 49.8245 217.09 49.8245H215.857V50.9866ZM215.857 49.2284H216.833C216.985 49.2284 217.117 49.2066 217.226 49.1631C217.336 49.1195 217.421 49.0579 217.478 48.978C217.538 48.8964 217.568 48.8002 217.568 48.6895C217.568 48.528 217.502 48.4019 217.369 48.3111C217.237 48.2204 217.055 48.175 216.826 48.175H215.857V49.2284ZM221.527 51.667V46.093H223.567C223.963 46.093 224.291 46.1582 224.551 46.289C224.809 46.4178 225.003 46.5928 225.133 46.8142C225.262 47.0338 225.326 47.2815 225.326 47.5572C225.326 47.7895 225.283 47.9855 225.198 48.1452C225.112 48.303 224.998 48.43 224.855 48.5262C224.714 48.6205 224.558 48.6895 224.387 48.733V48.7874C224.572 48.7965 224.752 48.8564 224.928 48.9671C225.107 49.0759 225.253 49.2311 225.369 49.4325C225.485 49.634 225.544 49.8788 225.544 50.1674C225.544 50.4522 225.477 50.7082 225.343 50.9349C225.21 51.1599 225.005 51.3386 224.727 51.4711C224.45 51.6017 224.095 51.667 223.662 51.667H221.527ZM222.367 50.9458H223.581C223.984 50.9458 224.273 50.8678 224.447 50.7118C224.621 50.5556 224.709 50.3606 224.709 50.1265C224.709 49.9505 224.664 49.789 224.575 49.6421C224.487 49.4951 224.359 49.378 224.193 49.291C224.03 49.2039 223.836 49.1603 223.611 49.1603H222.367V50.9458ZM222.367 48.5044H223.495C223.683 48.5044 223.852 48.4681 224.003 48.3955C224.156 48.323 224.276 48.2213 224.365 48.0907C224.456 47.9583 224.502 47.8022 224.502 47.6226C224.502 47.3921 224.421 47.1989 224.259 47.0429C224.098 46.8868 223.85 46.8088 223.516 46.8088H222.367V48.5044ZM230.137 48.5915V49.3046H227.804V48.5915H230.137ZM226.364 49.898H227.219C227.266 50.2645 227.388 50.5447 227.583 50.7389C227.782 50.9331 228.089 51.0301 228.507 51.0301C228.814 51.0301 229.068 50.9486 229.268 50.7853C229.468 50.6201 229.616 50.3969 229.712 50.1156C229.81 49.8344 229.859 49.5187 229.859 49.1685V48.6024C229.859 48.2249 229.804 47.8965 229.696 47.6171C229.587 47.3378 229.429 47.1218 229.219 46.9694C229.012 46.817 228.76 46.7407 228.461 46.7407C228.19 46.7407 227.969 46.787 227.796 46.8796C227.624 46.9721 227.491 47.1045 227.399 47.2769C227.308 47.4474 227.248 47.6535 227.219 47.8947H226.361C226.397 47.5354 226.498 47.2143 226.662 46.9313C226.826 46.6483 227.057 46.425 227.354 46.2617C227.655 46.0984 228.022 46.0167 228.461 46.0167C228.92 46.0167 229.32 46.1239 229.655 46.3379C229.992 46.5502 230.253 46.8495 230.436 47.2361C230.619 47.6226 230.711 48.0761 230.711 48.5969V49.1766C230.711 49.6974 230.62 50.1501 230.439 50.5348C230.258 50.9195 230.004 51.217 229.675 51.4276C229.344 51.6381 228.954 51.7432 228.507 51.7432C228.058 51.7432 227.681 51.6635 227.377 51.5037C227.072 51.3422 226.836 51.1227 226.669 50.845C226.502 50.5657 226.4 50.25 226.364 49.898ZM231.337 53.0143V50.954H231.704C231.829 50.8487 231.946 50.6991 232.055 50.5049C232.164 50.3107 232.256 50.0485 232.333 49.7183C232.408 49.3881 232.461 48.9644 232.491 48.4473L232.621 46.093H236.058V50.954H236.69V53.0062H235.884V51.667H232.141V53.0143H231.337ZM232.695 50.954H235.252V46.817H233.383L233.295 48.4473C233.273 48.8409 233.234 49.1948 233.179 49.5087C233.126 49.8227 233.058 50.1002 232.974 50.3416C232.893 50.581 232.799 50.7853 232.695 50.954Z" fill="#8C9192"/>
</g>
<defs>
<filter id="filter0_d_98_1465" x="3.99988" y="30.5964" width="70.2632" height="42.1429" filterUnits="userSpaceOnUse" color-interpolation-filters="sRGB">
<feFlood flood-opacity="0" result="BackgroundImageFix"/>
<feColorMatrix in="SourceAlpha" type="matrix" values="0 0 0 0 0 0 0 0 0 0 0 0 0 0 0 0 0 0 127 0" result="hardAlpha"/>
<feOffset dy="1.44609"/>
<feComposite in2="hardAlpha" operator="out"/>
<feColorMatrix type="matrix" values="0 0 0 0 0.529412 0 0 0 0 0.533333 0 0 0 0 0.541176 0 0 0 1 0"/>
<feBlend mode="normal" in2="BackgroundImageFix" result="effect1_dropShadow_98_1465"/>
<feBlend mode="normal" in="SourceGraphic" in2="effect1_dropShadow_98_1465" result="shape"/>
</filter>
<filter id="filter1_f_98_1465" x="-3.22646" y="-15.0775" width="85.6559" height="73.0467" filterUnits="userSpaceOnUse" color-interpolation-filters="sRGB">
<feFlood flood-opacity="0" result="BackgroundImageFix"/>
<feBlend mode="normal" in="SourceGraphic" in2="BackgroundImageFix" result="shape"/>
<feGaussianBlur stdDeviation="11.3986" result="effect1_foregroundBlur_98_1465"/>
</filter>
<filter id="filter2_f_98_1465" x="-3.22646" y="-15.0775" width="85.6559" height="73.0467" filterUnits="userSpaceOnUse" color-interpolation-filters="sRGB">
<feFlood flood-opacity="0" result="BackgroundImageFix"/>
<feBlend mode="normal" in="SourceGraphic" in2="BackgroundImageFix" result="shape"/>
<feGaussianBlur stdDeviation="11.3986" result="effect1_foregroundBlur_98_1465"/>
</filter>
<filter id="filter3_f_98_1465" x="-3.22646" y="-15.0775" width="85.6559" height="73.0467" filterUnits="userSpaceOnUse" color-interpolation-filters="sRGB">
<feFlood flood-opacity="0" result="BackgroundImageFix"/>
<feBlend mode="normal" in="SourceGraphic" in2="BackgroundImageFix" result="shape"/>
<feGaussianBlur stdDeviation="11.3986" result="effect1_foregroundBlur_98_1465"/>
</filter>
<filter id="filter4_f_98_1465" x="-3.22646" y="-15.0775" width="85.6559" height="73.0467" filterUnits="userSpaceOnUse" color-interpolation-filters="sRGB">
<feFlood flood-opacity="0" result="BackgroundImageFix"/>
<feBlend mode="normal" in="SourceGraphic" in2="BackgroundImageFix" result="shape"/>
<feGaussianBlur stdDeviation="11.3986" result="effect1_foregroundBlur_98_1465"/>
</filter>
<filter id="filter5_f_98_1465" x="-3.22646" y="-15.0775" width="85.6559" height="73.0467" filterUnits="userSpaceOnUse" color-interpolation-filters="sRGB">
<feFlood flood-opacity="0" result="BackgroundImageFix"/>
<feBlend mode="normal" in="SourceGraphic" in2="BackgroundImageFix" result="shape"/>
<feGaussianBlur stdDeviation="11.3986" result="effect1_foregroundBlur_98_1465"/>
</filter>
<filter id="filter6_f_98_1465" x="-3.22646" y="-15.0775" width="85.6559" height="73.0467" filterUnits="userSpaceOnUse" color-interpolation-filters="sRGB">
<feFlood flood-opacity="0" result="BackgroundImageFix"/>
<feBlend mode="normal" in="SourceGraphic" in2="BackgroundImageFix" result="shape"/>
<feGaussianBlur stdDeviation="11.3986" result="effect1_foregroundBlur_98_1465"/>
</filter>
<linearGradient id="paint0_linear_98_1465" x1="53.1252" y1="48.1671" x2="46.1074" y2="81.4272" gradientUnits="userSpaceOnUse">
<stop stop-color="#113569"/>
<stop offset="1" stop-color="#202735"/>
</linearGradient>
<linearGradient id="paint1_linear_98_1465" x1="50.0196" y1="-7.12419" x2="31.3479" y2="49.6138" gradientUnits="userSpaceOnUse">
<stop stop-color="#134B84"/>
<stop offset="1" stop-color="#154279"/>
</linearGradient>
<linearGradient id="paint2_linear_98_1465" x1="72.3067" y1="52.6447" x2="4.84978" y2="39.0657" gradientUnits="userSpaceOnUse">
<stop stop-color="#CBCBCB" stop-opacity="0.921569"/>
<stop offset="0.31448" stop-color="#D9DADA"/>
<stop offset="0.501574" stop-color="#EDEDED"/>
<stop offset="0.75" stop-color="#A8A9A9"/>
<stop offset="1" stop-color="#ABAEB3"/>
</linearGradient>
<linearGradient id="paint3_linear_98_1465" x1="51.126" y1="16.2989" x2="17.5985" y2="54.5673" gradientUnits="userSpaceOnUse">
<stop stop-color="#BBBCBE"/>
<stop offset="0.36" stop-color="#D5D6D7"/>
<stop offset="0.505" stop-color="white"/>
<stop offset="0.715" stop-color="#E9EAEA"/>
<stop offset="1" stop-color="#ABACAE"/>
</linearGradient>
<clipPath id="clip0_98_1465">
<rect width="233" height="71.6601" fill="white" transform="translate(4 1.16992)"/>
</clipPath>
</defs>
</svg>
