<svg width="241" height="62" viewBox="0 0 241 62" fill="none" xmlns="http://www.w3.org/2000/svg">
<path fill-rule="evenodd" clip-rule="evenodd" d="M9.21119 2.0298H61.7331C63.1628 1.95455 64.2915 3.08325 64.3667 4.51293C64.3667 4.58817 64.3667 4.66342 64.3667 4.66342V57.3358C64.442 58.6902 63.3133 59.8942 61.9588 59.9694C61.8836 59.9694 61.8083 59.9694 61.7331 59.9694H9.13595C7.70627 59.9694 6.50233 58.8407 6.50233 57.3358V4.73867C6.42708 3.30899 7.48053 2.10505 8.91021 2.0298C8.98545 2.0298 9.13595 2.0298 9.21119 2.0298ZM15.5319 32.354L24.9377 23.174H47.5115V30.9996L27.9475 31.0749C27.797 31.0749 8.38348 50.2626 6.50233 52.1438H54.8857C55.6381 52.2191 56.3154 51.6923 56.4659 50.9399C56.4659 50.7894 56.4659 50.6389 56.4659 50.5636V11.4356C56.4659 10.2316 55.8639 9.85541 54.9609 9.85541H15.6824C15.0052 9.85541 14.4032 10.3821 14.4032 11.0594C14.4032 11.1346 14.4032 11.1346 14.4032 11.2098V31.9026C14.4032 32.2788 14.7042 32.5798 15.0804 32.5798C15.2309 32.5798 15.3814 32.5045 15.5319 32.354ZM16.9616 22.6473C16.7358 22.873 16.5853 23.2492 16.5853 23.6255C16.5853 24.0017 16.7358 24.3027 16.9616 24.5284C17.1873 24.7542 17.5635 24.9047 17.8645 24.9047C18.617 24.9047 19.1437 24.3027 19.2189 23.5502C19.2189 23.174 19.0685 22.873 18.8427 22.572C18.617 22.3463 18.2407 22.1958 17.9398 22.1958C17.5635 22.271 17.1873 22.4215 16.9616 22.6473ZM75.2774 32.1283C75.2774 17.0791 86.5644 4.73867 102.592 4.73867C112.374 4.73867 118.243 8.12475 123.285 13.0158L117.34 19.9384C113.126 15.9504 108.536 13.3167 102.517 13.3167C92.3583 13.3167 85.0594 21.5938 85.0594 32.1283C85.0594 42.5123 92.4336 50.9399 102.517 50.9399C109.063 50.9399 113.202 48.3062 117.716 44.0172L123.661 50.0369C118.168 55.7556 112.073 59.4427 102.14 59.4427C86.7901 59.5179 75.2774 47.4785 75.2774 32.1283ZM146.46 14.2949H129.68V5.64162H172.646V14.2949H155.866V58.615H146.46V14.2949ZM182.503 5.64162H192.361L208.463 30.6986L224.566 5.64162H234.499V58.615H225.168V20.6156L208.463 45.5974H208.162L191.608 20.7661V58.615H182.503V5.64162Z" fill="#F38B00"/>
</svg>
