<svg width="241" height="106" viewBox="0 0 241 106" fill="none" xmlns="http://www.w3.org/2000/svg">
<path fill-rule="evenodd" clip-rule="evenodd" d="M113.842 91.2796H229.647V47.8721H113.842V91.2796Z" fill="#C42038"/>
<path fill-rule="evenodd" clip-rule="evenodd" d="M25.4964 6.47632H91.2057C99.3409 6.47632 105.997 12.995 105.997 20.9656V85.9881C105.997 93.9554 99.3409 100.474 91.2057 100.474H25.4964C17.3612 100.474 10.7048 93.9554 10.7048 85.9881V20.9656C10.7048 12.995 17.3612 6.47632 25.4964 6.47632Z" stroke="#1A1919" stroke-width="1.90128"/>
<path fill-rule="evenodd" clip-rule="evenodd" d="M103.848 43.751H108.661V21.9852H103.848V43.751Z" fill="#FFFFFE"/>
<path fill-rule="evenodd" clip-rule="evenodd" d="M103.848 43.751H108.661V21.9852H103.848V43.751Z" stroke="white" stroke-width="1.21554"/>
<path d="M59.5226 44.1466H71.904" stroke="#1A1919" stroke-width="1.21554"/>
<path fill-rule="evenodd" clip-rule="evenodd" d="M71.544 18.5716C70.8563 15.9226 69.4977 13.2735 64.6807 12.6968H55.0499C6.51911 17.8976 4.0455 91.5983 58.8321 94.9448C78.9415 94.7838 96.9044 80.878 100.116 57.278C101.491 51.7183 99.1977 47.5066 93.2357 47.6005L38.9264 47.6877L34.994 54.203L38.7128 60.4166L87.0433 60.3864C81.8824 75.3619 70.873 83.5405 55.0499 81.8135C20.2458 73.4036 25.9808 28.0177 59.1793 25.486V44.1467H71.564L71.544 18.5716Z" fill="#1A1919"/>
<path fill-rule="evenodd" clip-rule="evenodd" d="M71.544 18.5716C70.8563 15.9226 69.4977 13.2735 64.6807 12.6968H55.0499C6.51911 17.8976 4.0455 91.5983 58.8321 94.9448C78.9415 94.7838 96.9044 80.878 100.116 57.278C101.491 51.7183 99.1977 47.5066 93.2357 47.6005L38.9264 47.6877L34.994 54.203L38.7128 60.4166L87.0433 60.3864C81.8824 75.3619 70.873 83.5404 55.0499 81.8135C20.2458 73.4036 25.9808 28.0177 59.1793 25.486V44.1467H71.5641L71.544 18.5716Z" stroke="#1A1919" stroke-width="1.21554"/>
<path fill-rule="evenodd" clip-rule="evenodd" d="M59.1799 75.5932H71.5647V63.1527H59.1799V75.5932Z" fill="#1A1919"/>
<path fill-rule="evenodd" clip-rule="evenodd" d="M59.1799 75.5932H71.5647V63.1527H59.1799V75.5932Z" stroke="#1A1919" stroke-width="1.21554"/>
<path fill-rule="evenodd" clip-rule="evenodd" d="M85.5077 29.9056H90.8322V26.4954C90.5284 24.8758 89.4234 24.0308 87.5106 24.0308H81.7723C80.2901 24.0978 78.9081 24.7048 78.2271 26.1902L78.2238 31.0424C78.6677 33.4433 80.1633 34.5331 82.076 34.3051H85.471V37.2995L84.1124 37.2626V34.912H78.2238V38.2484C78.3506 40.0659 79.3187 41.102 80.6039 41.4307H88.1149C89.6237 41.102 90.6285 40.029 91.1326 38.2853V33.1683C90.9056 31.8538 89.9742 31.0424 88.3419 30.7406H84.0756V27.4041H85.5111L85.5077 29.9056Z" fill="#1A1919"/>
<path fill-rule="evenodd" clip-rule="evenodd" d="M85.5077 29.9056H90.8322V26.4954C90.5284 24.8758 89.4234 24.0308 87.5106 24.0308H81.7723C80.2901 24.0978 78.9081 24.7048 78.2271 26.1902L78.2238 31.0424C78.6677 33.4433 80.1633 34.5331 82.076 34.3051H85.471V37.2995L84.1124 37.2626V34.912H78.2238V38.2484C78.3506 40.0659 79.3187 41.102 80.6039 41.4307H88.1149C89.6237 41.102 90.6285 40.029 91.1326 38.2853V33.1683C90.9056 31.8538 89.9742 31.0424 88.3419 30.7406H84.0756V27.4041H85.5111L85.5077 29.9056Z" stroke="white" stroke-width="1.21554"/>
<path fill-rule="evenodd" clip-rule="evenodd" d="M92.8677 24.0675V41.4339L98.2889 41.4305V34.268H99.6609L99.6242 41.4339H105.099L105.136 24.0675H99.6275L99.6242 30.7773H98.3256L98.2889 24.0675H92.8677Z" fill="#1A1919"/>
<path fill-rule="evenodd" clip-rule="evenodd" d="M92.8677 24.0675V41.4339L98.2889 41.4305V34.268H99.6609L99.6242 41.4339H105.099L105.136 24.0675H99.6275L99.6242 30.7773H98.3256L98.2889 24.0675H92.8677Z" stroke="white" stroke-width="1.21554"/>
<path fill-rule="evenodd" clip-rule="evenodd" d="M106.872 24.0675V41.4339H115.515L115.438 37.8694L112.72 37.8292V34.5698H115.478L115.438 30.7404H112.72L112.647 27.9338H115.515V24.0709L106.872 24.0675Z" fill="#1A1919"/>
<path fill-rule="evenodd" clip-rule="evenodd" d="M106.872 24.0675V41.4339H115.515L115.438 37.8694L112.72 37.8292V34.5698H115.478L115.438 30.7404H112.72L112.647 27.9338H115.515V24.0709L106.872 24.0675Z" stroke="white" stroke-width="1.21554"/>
<path fill-rule="evenodd" clip-rule="evenodd" d="M117.137 24.0707L117.063 41.4337L122.685 41.3968L122.648 37.8726L124.047 41.4337H129.331L127.856 37.222C128.637 36.8431 129.264 36.0216 129.441 34.8345L129.404 26.874C129.354 25.6601 128.51 24.4496 126.647 24.0707H117.137Z" fill="#1A1919"/>
<path fill-rule="evenodd" clip-rule="evenodd" d="M117.137 24.0707L117.063 41.4337L122.685 41.3968L122.648 37.8726L124.047 41.4337H129.331L127.856 37.222C128.637 36.8431 129.264 36.0216 129.441 34.8345L129.404 26.874C129.354 25.6601 128.51 24.4496 126.647 24.0707H117.137Z" stroke="white" stroke-width="1.21554"/>
<path fill-rule="evenodd" clip-rule="evenodd" d="M122.761 27.8969V34.3049H124.043L124.083 27.9337L122.761 27.8969Z" fill="#FFFFFE"/>
<path fill-rule="evenodd" clip-rule="evenodd" d="M122.761 27.8969V34.3049H124.043L124.083 27.9337L122.761 27.8969Z" stroke="white" stroke-width="1.21554"/>
<path fill-rule="evenodd" clip-rule="evenodd" d="M141.218 24.0707L141.181 41.4371H146.953L146.98 36.3267L148.428 41.4371H152.351L154.087 36.377V41.4773L159.939 41.4371V24.074L154.09 24.0707L150.578 34.3081L147.03 24.0707H141.218Z" fill="#1A1919"/>
<path fill-rule="evenodd" clip-rule="evenodd" d="M141.218 24.0707L141.181 41.4371H146.953L146.98 36.3267L148.428 41.4371H152.351L154.087 36.377V41.4773L159.939 41.4371V24.074L154.09 24.0707L150.578 34.3081L147.03 24.0707H141.218Z" stroke="white" stroke-width="1.21554"/>
<path fill-rule="evenodd" clip-rule="evenodd" d="M174.845 27.9036V41.4004H180.32V27.9036L183.377 27.907V24.0742H172.281V27.9036H174.845Z" fill="#1A1919"/>
<path fill-rule="evenodd" clip-rule="evenodd" d="M174.845 27.9036V41.4004H180.32V27.9036L183.377 27.907V24.0742H172.281V27.9036H174.845Z" stroke="white" stroke-width="1.21554"/>
<path fill-rule="evenodd" clip-rule="evenodd" d="M184.809 24.0742L187.149 33.7047V41.3635H193.565L193.569 33.7818L196.283 24.0776L192.283 24.0374L191.339 27.4476L190.474 24.0776L184.809 24.0742Z" fill="#1A1919"/>
<path fill-rule="evenodd" clip-rule="evenodd" d="M184.809 24.0742L187.149 33.7047V41.3635H193.565L193.569 33.7818L196.283 24.0776L192.283 24.0374L191.339 27.4476L190.474 24.0776L184.809 24.0742Z" stroke="white" stroke-width="1.21554"/>
<path fill-rule="evenodd" clip-rule="evenodd" d="M207.305 24.0808L209.382 41.4807L215.23 41.4438L217.346 24.0808H213.571L213.12 27.8666L212.74 24.0808H207.305Z" fill="#1A1919"/>
<path fill-rule="evenodd" clip-rule="evenodd" d="M207.305 24.0808L209.382 41.4807L215.23 41.4438L217.346 24.0808H213.571L213.12 27.8666L212.74 24.0808H207.305Z" stroke="white" stroke-width="1.21554"/>
<path fill-rule="evenodd" clip-rule="evenodd" d="M221.002 24.0808H227.946C229.858 24.121 230.69 24.9694 230.666 27.4173L230.703 37.8827C230.733 40.012 230.439 41.4002 227.912 41.4036L221.042 41.4438C218.442 41.4036 218.335 40.3272 218.248 37.7955V27.2664C218.335 25.1807 219.093 24.0573 221.002 24.0808Z" fill="#1A1919"/>
<path fill-rule="evenodd" clip-rule="evenodd" d="M221.002 24.0808H227.946C229.858 24.121 230.69 24.9694 230.666 27.4173L230.703 37.8827C230.733 40.012 230.439 41.4002 227.912 41.4036L221.042 41.4438C218.442 41.4036 218.335 40.3272 218.248 37.7955V27.2664C218.335 25.1807 219.093 24.0573 221.002 24.0808Z" stroke="white" stroke-width="1.21554"/>
<path fill-rule="evenodd" clip-rule="evenodd" d="M223.755 37.2556H224.887V27.9169H223.755V37.2556Z" fill="#FFFFFE"/>
<path fill-rule="evenodd" clip-rule="evenodd" d="M223.755 37.2556H224.887V27.9169H223.755V37.2556Z" stroke="white" stroke-width="1.21554"/>
<path fill-rule="evenodd" clip-rule="evenodd" d="M131.271 24.0676V41.434H139.917L139.84 37.8695L137.123 37.8293V34.5699H139.877L139.84 30.7406H137.123L137.046 27.9339H139.917L139.913 24.071L131.271 24.0676Z" fill="#1A1919"/>
<path fill-rule="evenodd" clip-rule="evenodd" d="M131.271 24.0676V41.434H139.917L139.84 37.8695L137.123 37.8293V34.5699H139.877L139.84 30.7406H137.123L137.046 27.9339H139.917L139.913 24.071L131.271 24.0676Z" stroke="white" stroke-width="1.21554"/>
<path fill-rule="evenodd" clip-rule="evenodd" d="M161.932 24.0675V41.4339H170.575L170.498 37.8694L167.784 37.8292V34.5698H170.538L170.498 30.7404H167.784L167.707 27.9338H170.575V24.0709L161.932 24.0675Z" fill="#1A1919"/>
<path fill-rule="evenodd" clip-rule="evenodd" d="M161.932 24.0675V41.4339H170.575L170.498 37.8694L167.784 37.8292V34.5698H170.538L170.498 30.7404H167.784L167.707 27.9338H170.575V24.0709L161.932 24.0675Z" stroke="white" stroke-width="1.21554"/>
<path fill-rule="evenodd" clip-rule="evenodd" d="M197.503 24.0675L197.5 41.4339H206.146L206.069 37.8694L203.352 37.8292V34.5698H206.106L206.069 30.7404H203.352L203.275 27.9338H206.146V24.0709L197.503 24.0675Z" fill="#1A1919"/>
<path fill-rule="evenodd" clip-rule="evenodd" d="M197.503 24.0675L197.5 41.4339H206.146L206.069 37.8694L203.352 37.8292V34.5698H206.106L206.069 30.7404H203.352L203.275 27.9338H206.146V24.0709L197.503 24.0675Z" stroke="white" stroke-width="1.21554"/>
<path fill-rule="evenodd" clip-rule="evenodd" d="M140.415 62.0731C137.871 58.3644 133.555 58.3744 130.423 60.2623C125.546 63.1997 125.85 74.4029 132.096 78.3329C135.464 80.4555 139.333 79.369 141.586 76.5758L140.662 78.6212L139.964 78.7319L138.749 79.3657C135.514 80.5125 132.974 80.0765 130.754 79.1611C123.236 76.0527 122.398 65.2352 128.451 60.6278C131.061 58.6394 134.967 57.5495 139.921 59.7157L140.415 62.0731Z" fill="#FFFFFE"/>
<path fill-rule="evenodd" clip-rule="evenodd" d="M140.415 62.0731C137.871 58.3644 133.555 58.3744 130.423 60.2623C125.546 63.1997 125.85 74.4029 132.096 78.3329C135.464 80.4555 139.333 79.369 141.586 76.5758L140.662 78.6212L139.964 78.7319L138.749 79.3657C135.514 80.5125 132.974 80.0765 130.754 79.1611C123.236 76.0527 122.398 65.2352 128.451 60.6278C131.061 58.6394 134.967 57.5495 139.921 59.7157L140.415 62.0731Z" stroke="#FFFFFE" stroke-width="1.21554"/>
<path fill-rule="evenodd" clip-rule="evenodd" d="M141.506 80.1567L143.059 79.362C143.686 79.02 144.027 78.3494 143.993 77.226L150.413 59.6216C151.604 59.6853 152.302 58.7732 152.509 57.5157L160.284 77.9067C160.591 78.8356 161.148 79.8449 161.95 79.969C162.794 79.8013 163.308 78.9194 163.492 78.0912L163.615 59.806C163.388 58.961 162.577 58.5452 161.692 58.3608H171.206C175.873 59.3298 176.821 63.0922 174.722 66.4387C174.044 67.3474 173.416 67.9175 172.305 68.5177C175.002 73.0244 177.182 77.5412 182.56 80.0126C176.18 79.2816 173.316 75.4052 170.218 69.2286C168.549 69.5673 167.428 69.1246 166.146 68.5479L166.086 77.2864C165.605 78.4231 166.51 79.6202 168.088 80.1567L154.782 80.2003C156.755 79.5599 157.673 78.1113 157.012 76.4816L154.595 69.9931L147.779 69.973L145.165 76.666C144.467 78.1549 145.001 79.6605 146.771 80.1567H141.506ZM165.959 60.3358L166.122 68.3836C167.327 68.7658 166.71 68.5982 168.099 68.7189C171.006 68.4909 172.472 67.6928 172.932 65.5434C173.526 62.8038 172.598 60.6845 170.095 59.8395C169.284 59.5076 168.149 59.5512 167.01 59.531C166.212 59.4371 165.862 59.7088 165.959 60.3358ZM150.78 61.7006L148.436 68.5177C148.066 69.0676 148.189 69.3996 148.807 69.5102H153.434C154.188 69.5471 154.409 69.2789 154.175 68.7658L151.644 61.7006C151.564 61.0467 150.873 61.0333 150.78 61.7006Z" fill="#FFFFFE"/>
<path fill-rule="evenodd" clip-rule="evenodd" d="M141.506 80.1567L143.059 79.362C143.686 79.02 144.027 78.3494 143.993 77.226L150.413 59.6216C151.604 59.6853 152.302 58.7732 152.509 57.5157L160.284 77.9067C160.591 78.8356 161.148 79.8449 161.95 79.969C162.794 79.8013 163.308 78.9194 163.492 78.0912L163.615 59.806C163.388 58.961 162.577 58.5452 161.692 58.3608H171.206C175.873 59.3298 176.821 63.0922 174.721 66.4387C174.044 67.3474 173.416 67.9175 172.305 68.5177C175.002 73.0244 177.182 77.5412 182.56 80.0126C176.18 79.2816 173.316 75.4052 170.218 69.2286C168.549 69.5673 167.428 69.1246 166.146 68.5479L166.086 77.2864C165.605 78.4231 166.51 79.6202 168.088 80.1567L154.782 80.2003C156.755 79.5599 157.673 78.1113 157.012 76.4816L154.595 69.9931L147.779 69.973L145.165 76.666C144.467 78.1549 145.001 79.6605 146.771 80.1567H141.506ZM165.959 60.3358L166.122 68.3836C167.327 68.7658 166.71 68.5982 168.099 68.7189C171.006 68.4909 172.472 67.6928 172.932 65.5434C173.526 62.8038 172.598 60.6845 170.095 59.8395C169.284 59.5076 168.149 59.5512 167.01 59.531C166.212 59.4371 165.862 59.7088 165.959 60.3358ZM150.78 61.7006L148.436 68.5177C148.066 69.0676 148.189 69.3996 148.807 69.5102H153.434C154.188 69.5471 154.409 69.2789 154.175 68.7658L151.644 61.7006C151.564 61.0467 150.873 61.0333 150.78 61.7006Z" stroke="#FFFFFE" stroke-width="1.21554"/>
<path fill-rule="evenodd" clip-rule="evenodd" d="M194.035 62.4083L193.911 60.0678C189.468 57.5461 184.494 57.7507 180.829 61.6069C176.486 66.5495 176.589 73.142 182.124 78.0478C185.559 80.4286 189.241 80.7572 193.17 79.0336L195.207 78.4166V74.1077C195.33 72.9777 195.864 72.1763 196.809 71.7068L191.752 71.6431C192.676 72.0522 193.11 72.7094 193.047 73.6148L192.923 78.3529C190.099 80.6666 185.125 79.7411 183.052 76.3846C179.834 72.0019 178.823 67.0961 181.817 62.1635C185.095 57.5964 191.621 58.0961 194.035 62.4083Z" fill="#FFFFFE"/>
<path fill-rule="evenodd" clip-rule="evenodd" d="M194.035 62.4083L193.911 60.0678C189.468 57.5461 184.494 57.7507 180.829 61.6069C176.486 66.5495 176.589 73.142 182.124 78.0478C185.559 80.4286 189.241 80.7572 193.17 79.0336L195.207 78.4166V74.1077C195.33 72.9777 195.864 72.1763 196.809 71.7068L191.752 71.6431C192.676 72.0522 193.11 72.7094 193.047 73.6148L192.923 78.3529C190.099 80.6666 185.125 79.7411 183.052 76.3846C179.834 72.0019 178.823 67.0961 181.817 62.1635C185.095 57.5964 191.621 58.0961 194.035 62.4083Z" stroke="#FFFFFE" stroke-width="1.21554"/>
<path fill-rule="evenodd" clip-rule="evenodd" d="M208.567 58.4347C214.396 58.4347 219.15 63.2935 219.15 69.2522C219.15 75.2075 214.396 80.0664 208.567 80.0664C202.739 80.0664 197.985 75.2075 197.985 69.2522C197.985 63.2935 202.739 58.4347 208.567 58.4347ZM206.985 59.102C211.378 58.3643 215.688 62.2741 216.576 67.8137C217.464 73.3499 214.603 78.4736 210.21 79.2113C205.817 79.9524 201.511 76.0391 200.619 70.503C199.731 64.9634 202.592 59.843 206.985 59.102Z" fill="#FFFFFE"/>
<path fill-rule="evenodd" clip-rule="evenodd" d="M208.567 58.4347C214.396 58.4347 219.15 63.2935 219.15 69.2522C219.15 75.2075 214.396 80.0664 208.567 80.0664C202.739 80.0664 197.985 75.2075 197.985 69.2522C197.985 63.2935 202.739 58.4347 208.567 58.4347ZM206.985 59.102C211.378 58.3643 215.688 62.2741 216.576 67.8137C217.464 73.3499 214.603 78.4736 210.21 79.2113C205.817 79.9524 201.511 76.0391 200.619 70.503C199.731 64.9634 202.592 59.843 206.985 59.102Z" stroke="#FFFFFE" stroke-width="1.21554"/>
</svg>
