<svg width="238" height="89" viewBox="0 0 238 89" fill="none" xmlns="http://www.w3.org/2000/svg">
<path d="M48.3122 0.19751H37.2136V61.544H48.3122V0.19751Z" fill="#101828"/>
<path d="M55.3499 39.0835V27.95C59.9322 27.95 63.6633 24.2216 63.6633 19.6407C63.6633 15.0569 59.9322 11.3286 55.3499 11.3286V0.197876C66.0731 0.197876 74.7912 8.91881 74.7912 19.6407C74.7912 30.3597 66.0731 39.0835 55.3499 39.0835Z" fill="#101828"/>
<path d="M30.1179 87.7044C13.9919 87.7044 0.872803 73.9337 0.872803 57.0068C0.872803 40.0798 13.9919 26.3091 30.1179 26.3091V37.9923C20.1286 37.9923 12.0035 46.5221 12.0035 57.0068C12.0035 67.4942 20.1286 76.0212 30.1179 76.0212V87.7044Z" fill="#F28B24"/>
<path d="M57.508 43.4214V54.6135C57.508 56.3228 57.868 57.6386 58.5866 58.5624C59.3052 59.4861 60.568 59.9466 62.3736 59.9466C64.0843 59.9466 65.3094 59.4917 66.0462 58.5763C66.7885 57.6666 67.1555 56.401 67.1555 54.7879V43.4214H69.3406V54.6135C69.3406 55.5261 69.2541 56.4289 69.081 57.3233C68.9038 58.2191 68.5145 59.034 67.9117 59.7721C67.2322 60.6093 66.3992 61.1605 65.4196 61.4326C64.4387 61.7033 63.4229 61.8498 62.3722 61.8693C59.9038 61.8484 58.1276 61.2345 57.0392 60.0163C55.9522 58.8066 55.3899 57.0024 55.348 54.6121V43.42L57.508 43.4214Z" fill="#101828"/>
<path d="M73.8797 43.4211H76.0062V59.4244H82.7988V61.4658H73.8783L73.8797 43.4211Z" fill="#101828"/>
<path d="M85.9506 43.4211H88.0771V51.4932L95.6259 43.4211H98.1919L90.4966 51.5532L98.951 61.4658H96.2133L88.0771 51.7277V61.4658H85.9506V43.4211Z" fill="#101828"/>
<path d="M114.729 60.3566C113.059 61.3655 111.293 61.872 109.424 61.872C109.191 61.872 108.962 61.8608 108.739 61.8427C108.517 61.8218 108.29 61.8064 108.054 61.7883C107.511 61.6892 106.971 61.5622 106.44 61.4087C105.902 61.2539 105.394 61.0515 104.905 60.7962C103.293 59.9813 102.04 58.812 101.147 57.2827C100.253 55.759 99.8047 54.1404 99.8047 52.4297C99.8047 52.159 99.8214 51.8757 99.8493 51.5841C99.88 51.2925 99.9233 51.0008 99.9791 50.712C100.078 50.2459 100.202 49.7827 100.357 49.3236C100.514 48.8687 100.709 48.4264 100.943 47.9994C101.8 46.4045 103.001 45.1892 104.556 44.3534C106.112 43.519 107.732 43.1031 109.424 43.1031C109.699 43.1031 109.964 43.1143 110.228 43.1311C110.487 43.1534 110.757 43.1799 111.026 43.219C111.689 43.339 112.345 43.5134 112.998 43.7422C113.645 43.9794 114.274 44.2794 114.874 44.6492C116.118 45.4264 117.1 46.4757 117.819 47.7971C118.537 49.1185 118.945 50.4901 119.044 51.9064C119.063 52.0236 119.073 52.1352 119.073 52.2441C119.073 52.3487 119.073 52.4576 119.073 52.5748C119.073 53.179 119.016 53.7706 118.897 54.3539C118.784 54.9343 118.617 55.5092 118.403 56.0701C117.626 57.9176 116.402 59.3478 114.729 60.3566ZM102.517 49.8608C102.4 50.1748 102.301 50.4929 102.223 50.8222C102.167 51.0929 102.121 51.3678 102.09 51.6399C102.062 51.9106 102.05 52.1743 102.05 52.4255C102.05 53.7455 102.4 55.0125 103.098 56.2292C103.8 57.4445 104.758 58.3822 105.982 59.0422C106.413 59.2766 106.848 59.4622 107.296 59.5976C107.744 59.7315 108.199 59.8292 108.667 59.8892C108.76 59.8892 108.869 59.8948 108.987 59.9032C109.101 59.9115 109.218 59.9171 109.338 59.9171C110.774 59.9171 112.145 59.5055 113.447 58.6794C114.749 57.8534 115.689 56.7315 116.273 55.3139C116.39 55.0418 116.489 54.7529 116.578 54.4529C116.666 54.1501 116.73 53.8557 116.768 53.5641C116.806 53.3897 116.829 53.2097 116.838 53.0227C116.853 52.8371 116.857 52.6571 116.857 52.4827C116.857 52.4464 116.857 52.4101 116.857 52.3794C116.857 52.3501 116.857 52.3166 116.857 52.2804C116.815 51.1166 116.513 49.9836 115.938 48.8827C115.366 47.7845 114.562 46.9069 113.535 46.2441C113.087 45.9525 112.613 45.7152 112.123 45.5297C111.623 45.3441 111.124 45.2032 110.617 45.1069C110.425 45.0873 110.235 45.0692 110.051 45.0469C109.865 45.0273 109.678 45.019 109.48 45.019C109.423 45.019 109.371 45.019 109.325 45.019C109.272 45.019 109.219 45.019 109.162 45.019C107.921 45.0762 106.724 45.4473 105.576 46.1255C104.433 46.8064 103.548 47.7469 102.929 48.9538C102.768 49.2511 102.632 49.5525 102.517 49.8608Z" fill="#101828"/>
<path d="M120.925 43.4211H123.195L128.503 57.2086L133.777 43.4211H136.05L128.503 62.1356L120.925 43.4211Z" fill="#101828"/>
<path d="M151.266 60.3568C149.598 61.3656 147.823 61.8721 145.959 61.8721C145.725 61.8721 145.497 61.8609 145.276 61.8428C145.052 61.8219 144.821 61.8065 144.592 61.7884C144.046 61.6893 143.508 61.5623 142.975 61.4089C142.439 61.254 141.931 61.0516 141.441 60.7963C139.828 59.9814 138.576 58.8121 137.681 57.2828C136.783 55.7591 136.34 54.1405 136.34 52.4298C136.34 52.1591 136.356 51.8758 136.386 51.5842C136.414 51.2926 136.457 51.001 136.517 50.7121C136.612 50.2461 136.737 49.7828 136.895 49.3237C137.051 48.8689 137.244 48.4265 137.478 47.9996C138.334 46.4047 139.541 45.1893 141.094 44.3535C142.649 43.5191 144.271 43.1033 145.962 43.1033C146.231 43.1033 146.503 43.1144 146.762 43.1312C147.025 43.1535 147.29 43.18 147.563 43.2191C148.227 43.3391 148.878 43.5135 149.533 43.7423C150.184 43.9796 150.805 44.2796 151.412 44.6493C152.657 45.4265 153.638 46.4758 154.356 47.7972C155.078 49.1186 155.483 50.4903 155.58 51.9065C155.6 52.0237 155.609 52.1354 155.609 52.2442C155.609 52.3489 155.609 52.4577 155.609 52.5749C155.609 53.1791 155.554 53.7707 155.435 54.354C155.318 54.9344 155.153 55.5093 154.941 56.0703C154.163 57.9177 152.936 59.3479 151.266 60.3568ZM139.049 49.8609C138.936 50.1749 138.836 50.493 138.759 50.8223C138.699 51.093 138.659 51.3679 138.628 51.64C138.599 51.9107 138.588 52.1744 138.588 52.4256C138.588 53.7456 138.936 55.0126 139.634 56.2293C140.337 57.4447 141.293 58.3823 142.518 59.0423C142.948 59.2768 143.382 59.4623 143.833 59.5977C144.275 59.7344 144.734 59.8293 145.199 59.8893C145.298 59.8893 145.405 59.8949 145.52 59.9033C145.637 59.9116 145.754 59.9172 145.869 59.9172C147.304 59.9172 148.677 59.5056 149.981 58.6796C151.281 57.8535 152.226 56.7316 152.808 55.314C152.923 55.0419 153.024 54.753 153.115 54.453C153.2 54.1503 153.261 53.8558 153.306 53.5642C153.342 53.3898 153.369 53.2098 153.377 53.0228C153.387 52.8372 153.392 52.6572 153.392 52.4828C153.392 52.4465 153.392 52.4103 153.392 52.3796C153.392 52.3503 153.392 52.3168 153.392 52.2805C153.353 51.1168 153.046 49.9837 152.474 48.8828C151.901 47.7847 151.1 46.907 150.067 46.2442C149.623 45.9526 149.15 45.7154 148.654 45.5298C148.157 45.3442 147.656 45.2033 147.155 45.107C146.954 45.0875 146.769 45.0693 146.584 45.047C146.397 45.0275 146.209 45.0191 146.018 45.0191C145.959 45.0191 145.903 45.0191 145.859 45.0191C145.81 45.0191 145.758 45.0191 145.698 45.0191C144.452 45.0763 143.256 45.4475 142.114 46.1256C140.967 46.8065 140.082 47.747 139.467 48.954C139.303 49.2512 139.168 49.5526 139.049 49.8609Z" fill="#101828"/>
<path d="M51.532 87.7043H49.2282L46.8701 82.1662H39.8473L37.5115 87.7043H35.2371L43.3733 68.9592L51.532 87.7043ZM46.1989 80.3299L43.3733 73.6825L40.485 80.3299H46.1989Z" fill="#F28B24"/>
<path d="M54.4824 87.7044V69.6611H58.9727C59.168 69.6611 59.3689 69.6639 59.5838 69.6751C59.7987 69.6876 60.0038 69.7044 60.1964 69.7211C60.8341 69.7588 61.4494 69.8844 62.0313 70.0993C62.6159 70.3156 63.1071 70.6728 63.5187 71.1793C63.7699 71.5058 63.9722 71.877 64.1299 72.2858C64.2834 72.6946 64.402 73.1118 64.4801 73.5388C64.4996 73.7132 64.5178 73.8932 64.5415 74.076C64.561 74.2644 64.5694 74.4416 64.5694 74.616V75.0849C64.4313 76.6379 63.8703 77.6983 62.8768 78.2593C61.8847 78.823 60.7015 79.1062 59.3229 79.1062L66.202 87.7044H63.4601L56.8461 79.1062H56.581V87.7044H54.4824ZM56.581 77.5044C56.7178 77.5044 56.8601 77.51 57.0066 77.5183C57.1503 77.5267 57.3094 77.5323 57.4866 77.5323C57.6024 77.5323 57.721 77.5393 57.8354 77.5476C57.9527 77.5588 58.0699 77.563 58.1857 77.563C58.2471 77.563 58.2973 77.563 58.3475 77.563C58.3964 77.563 58.4382 77.563 58.4759 77.563C58.554 77.563 58.6336 77.563 58.7103 77.563C58.7899 77.563 58.8666 77.563 58.9448 77.563C59.8001 77.5281 60.5913 77.337 61.321 76.9965C62.048 76.656 62.4248 75.9639 62.4443 74.9118V74.5337C62.4443 73.1732 62.0341 72.329 61.2206 71.997C60.4015 71.669 59.4889 71.503 58.4759 71.503H56.5824L56.581 77.5044Z" fill="#F28B24"/>
<path d="M86.6019 78.4055C86.6019 78.4432 86.6019 78.4878 86.6019 78.5395C86.6019 78.5855 86.6019 78.6288 86.6019 78.6706C86.5768 78.8827 86.5642 79.0878 86.5544 79.2818C86.5433 79.4757 86.5391 79.6697 86.5391 79.865C86.5014 80.3702 86.4484 80.8655 86.38 81.3483C86.313 81.8381 86.1986 82.3097 86.0423 82.7757C85.4242 84.5855 84.3288 85.9264 82.7675 86.8013C81.2005 87.6762 79.5428 88.1116 77.7944 88.1116C77.7372 88.1116 77.6758 88.1116 77.6047 88.1116C77.5391 88.1116 77.4637 88.1116 77.3856 88.1116C75.6582 88.032 74.0186 87.5478 72.4614 86.6534C70.907 85.759 69.7921 84.4864 69.1112 82.8357C68.9368 82.3502 68.7805 81.8436 68.6437 81.3204C68.5042 80.7943 68.4219 80.2683 68.3828 79.745C68.3591 79.5902 68.3465 79.4339 68.3368 79.279C68.3256 79.1213 68.3214 78.9678 68.3214 78.8129C68.3214 78.559 68.3312 78.3092 68.3507 78.0553C68.3689 77.8013 68.401 77.5488 68.44 77.2976C68.5558 76.4604 68.7749 75.6357 69.0972 74.8181C69.4154 74.0032 69.8298 73.2539 70.3335 72.5757C71.2098 71.4664 72.2926 70.6404 73.5833 70.0976C74.8795 69.5534 76.2009 69.2827 77.5642 69.2827C77.6828 69.2827 77.7958 69.2827 77.9144 69.2827C78.0302 69.2827 78.1558 69.2939 78.2926 69.312C79.6558 69.4097 80.9744 69.7753 82.2582 70.4046C83.5405 71.0367 84.58 71.9255 85.3796 73.0725L83.567 74.4706C82.9293 73.4408 82.1214 72.6385 81.1489 72.0664C80.1777 71.4915 79.0823 71.2055 77.86 71.2055H77.5656C75.4475 71.225 73.7591 72.0036 72.5089 73.5385C71.253 75.0734 70.6265 76.8497 70.6265 78.8715C70.6265 78.9483 70.6307 79.0376 70.6419 79.1339C70.6503 79.2343 70.6684 79.3195 70.6865 79.3962C70.6865 79.4953 70.6921 79.5943 70.7005 79.6906C70.7116 79.7869 70.7158 79.8734 70.7158 79.9529C70.9475 81.9134 71.7233 83.4148 73.0321 84.4585C74.3465 85.4967 75.7698 86.066 77.3005 86.1623C77.38 86.1818 77.4582 86.1916 77.5391 86.1916C77.6144 86.1916 77.6926 86.1916 77.7707 86.1916C79.3251 86.1916 80.7651 85.6962 82.1005 84.7069C83.4289 83.7148 84.1642 82.2455 84.2968 80.306H79.1396V78.4111H86.6019V78.4055Z" fill="#F28B24"/>
<path d="M104.431 86.5978C102.761 87.6066 100.993 88.1131 99.1278 88.1131C98.8961 88.1131 98.6659 88.102 98.4426 88.0838C98.2194 88.0657 97.9933 88.0462 97.7589 88.0266C97.212 87.9289 96.6734 87.8034 96.1403 87.6485C95.6059 87.495 95.0952 87.2885 94.6068 87.0373C92.9952 86.2169 91.7408 85.0475 90.8506 83.5238C89.9547 81.9973 89.5068 80.3787 89.5068 78.6694C89.5068 78.3973 89.5222 78.1141 89.5487 77.8224C89.5794 77.5308 89.624 77.2392 89.6826 76.9475C89.7817 76.4815 89.9045 76.021 90.0608 75.5662C90.2171 75.1085 90.411 74.6647 90.6468 74.2392C91.5036 72.6415 92.7036 71.4289 94.2608 70.5931C95.8138 69.7587 97.4352 69.3429 99.1292 69.3429C99.4013 69.3429 99.6678 69.3513 99.9315 69.3722C100.191 69.3917 100.46 69.4196 100.73 69.4601C101.392 69.5773 102.048 69.7517 102.701 69.9861C103.349 70.2206 103.977 70.5206 104.578 70.8875C105.821 71.6647 106.804 72.7168 107.524 74.0355C108.242 75.3568 108.651 76.7285 108.746 78.1475C108.767 78.262 108.775 78.3764 108.775 78.481C108.775 78.5871 108.775 78.6987 108.775 78.8159C108.775 79.4187 108.718 80.0075 108.599 80.5908C108.486 81.1768 108.322 81.7462 108.104 82.3099C107.328 84.1587 106.103 85.5875 104.431 86.5978ZM92.218 76.1034C92.1022 76.4145 92.0017 76.7354 91.9278 77.0648C91.8706 77.3368 91.8231 77.6103 91.7952 77.8796C91.7659 78.1545 91.7533 78.4141 91.7533 78.6694C91.7533 79.9866 92.1022 81.2564 92.8026 82.4745C93.5031 83.6843 94.4603 84.6247 95.6854 85.2875C96.1166 85.5192 96.5492 85.7048 96.9971 85.8401C97.4464 85.9768 97.9013 86.0745 98.3673 86.1289C98.4636 86.1289 98.571 86.1345 98.6896 86.1457C98.804 86.1568 98.9213 86.1596 99.0385 86.1596C100.476 86.1596 101.846 85.748 103.148 84.922C104.45 84.0959 105.39 82.9741 105.973 81.5536C106.091 81.2815 106.19 80.9982 106.279 80.6927C106.371 80.3927 106.431 80.0954 106.47 79.8038C106.509 79.6294 106.533 79.4494 106.547 79.2666C106.557 79.081 106.562 78.901 106.562 78.7266C106.562 78.6861 106.562 78.6513 106.562 78.6234C106.562 78.5955 106.562 78.5606 106.562 78.5229C106.519 77.3564 106.215 76.2261 105.641 75.1266C105.068 74.0257 104.264 73.148 103.238 72.4866C102.788 72.195 102.316 71.955 101.822 71.768C101.328 71.5852 100.826 71.4457 100.321 71.348C100.124 71.3257 99.9371 71.3075 99.7529 71.288C99.5687 71.2685 99.3789 71.2601 99.1822 71.2601C99.1264 71.2601 99.0719 71.2601 99.0245 71.2601C98.9729 71.2601 98.9226 71.2601 98.8654 71.2601C97.6222 71.3173 96.425 71.6857 95.278 72.3666C94.1338 73.0448 93.2506 73.9908 92.6282 75.195C92.4706 75.4894 92.3338 75.7922 92.218 76.1034Z" fill="#F28B24"/>
<path d="M122.272 71.7026H117.232V69.6613H129.561V71.7026H124.519V87.7059H122.276V71.7026H122.272Z" fill="#F28B24"/>
<path d="M132.358 69.6614H141.864V71.6428H134.49V76.8042H141.864V78.7856H134.49V85.7246H141.864V87.706H132.358V69.6614Z" fill="#F28B24"/>
<path d="M146.193 87.7044V69.6611H150.684C150.875 69.6611 151.082 69.6639 151.295 69.6751C151.505 69.6876 151.71 69.7044 151.908 69.7211C152.546 69.7588 153.159 69.8844 153.74 70.0993C154.322 70.3156 154.817 70.6728 155.229 71.1793C155.477 71.5058 155.681 71.877 155.839 72.2858C155.996 72.6946 156.109 73.1118 156.19 73.5388C156.211 73.7132 156.226 73.8932 156.245 74.076C156.266 74.2644 156.278 74.4416 156.278 74.616V75.0849C156.137 76.6379 155.578 77.6983 154.586 78.2593C153.593 78.823 152.405 79.1062 151.032 79.1062L157.905 87.7044H155.166L148.549 79.1062H148.287V87.7044H146.193ZM148.29 77.5044C148.428 77.5044 148.566 77.51 148.714 77.5183C148.859 77.5267 149.022 77.5323 149.194 77.5323C149.315 77.5323 149.43 77.5393 149.547 77.5476C149.664 77.5588 149.777 77.563 149.897 77.563C149.953 77.563 150.009 77.563 150.055 77.563C150.104 77.563 150.144 77.563 150.189 77.563C150.266 77.563 150.344 77.563 150.422 77.563C150.496 77.563 150.575 77.563 150.653 77.563C151.507 77.5281 152.303 77.337 153.028 76.9965C153.757 76.656 154.132 75.9639 154.152 74.9118V74.5337C154.152 73.1732 153.744 72.329 152.928 71.997C152.114 71.669 151.196 71.503 150.189 71.503H148.293L148.29 77.5044Z" fill="#F28B24"/>
<path d="M164.529 75.4603L162.253 87.7045H160.184L163.825 68.9594L170.151 83.884L176.449 68.9594L180.125 87.7045H177.997L175.724 75.4603L170.153 88.3756L164.529 75.4603Z" fill="#F28B24"/>
<path d="M184.062 69.6613H186.224V87.7059H184.062V69.6613Z" fill="#F28B24"/>
<path d="M191.526 68.9606L204.701 83.3634V69.661H206.768V88.3755L193.535 74.1527V87.7057H191.526V68.9606Z" fill="#F28B24"/>
<path d="M225.713 87.7045H223.411L221.049 82.1663H214.026L211.694 87.7045H209.42L217.549 68.9594L225.713 87.7045ZM220.382 80.3301L217.549 73.6826L214.669 80.3301H220.382Z" fill="#F28B24"/>
<path d="M228.536 69.6613H230.663V85.6673H237.457V87.7059H228.535V69.6613H228.536Z" fill="#F28B24"/>
</svg>
