<svg width="241" height="110" viewBox="0 0 241 110" fill="none" xmlns="http://www.w3.org/2000/svg">
<mask id="mask0_98_1595" style="mask-type:luminance" maskUnits="userSpaceOnUse" x="0" y="0" width="241" height="110">
<path d="M240.5 0.753418H0.5V109.247H240.5V0.753418Z" fill="white"/>
</mask>
<g mask="url(#mask0_98_1595)">
<path d="M87.405 55.7315L86.4798 56.6561L87.4047 57.5813L106.845 77.0276L95.7945 81.6223L95.2966 81.8293L95.0891 82.3271L90.4822 93.3871L71.0415 73.9404L70.1165 73.0152L69.1916 73.9401L66.4304 76.7003V52.972H90.1651L87.405 55.7315Z" fill="#59BE8B" stroke="#59BE8B" stroke-width="2.61634"/>
<path d="M56.267 79.102L55.3418 78.1771L54.4169 79.102L30.3544 103.171L24.5657 89.2558L24.3584 88.7577L23.8602 88.5504L9.94238 82.7628L34.0161 58.6942L34.9413 57.7692L34.0161 56.844L30.1431 52.9719H60.1406V82.9747L56.267 79.102Z" fill="#59BE8B" stroke="#59BE8B" stroke-width="2.61634"/>
<path d="M39.169 43.9258L40.0942 43.0009L39.169 42.076L19.7292 22.6359L30.7795 18.0399L31.278 17.8326L31.4852 17.334L36.0815 6.27222L55.5328 25.7126L56.4577 26.6371L57.3826 25.7123L60.1433 22.9515V46.6868H36.4083L39.169 43.9258Z" fill="#59BE8B" stroke="#59BE8B" stroke-width="2.61634"/>
<path d="M71.6247 47.7754H65.9961V15.6881H87.9807V20.6431H71.6247V47.7754ZM96.8576 48.3525C95.5105 48.3525 94.2116 48.1281 92.9609 47.6792C91.7102 47.2301 90.8122 46.7171 90.2669 46.1397L92.2873 41.5214C93.6665 42.74 95.0616 43.3495 96.4726 43.3495C97.7233 43.3495 98.7016 43.0609 99.4072 42.4835C100.145 41.8744 100.914 40.7999 101.716 39.2604L89.6416 15.6881H96.0396L104.891 34.4018L113.743 15.6881H120.141L106.767 41.762C105.645 43.9428 104.346 45.5944 102.871 46.7171C101.396 47.8075 99.391 48.3525 96.8576 48.3525ZM127.488 47.7754H120.561L134.559 30.8418L121.523 15.6881H128.498L139.851 29.5429V15.6881H145.479V29.5429L156.833 15.6881H163.808L150.771 30.8418L164.77 47.7754H157.843L147.067 34.2574L145.479 36.1334V47.7754H139.851V36.1334L138.263 34.2574L127.488 47.7754ZM192.855 43.6863C189.776 46.7971 185.848 48.3525 181.069 48.3525C176.291 48.3525 172.362 46.7971 169.283 43.6863C166.204 40.5434 164.665 36.5664 164.665 31.7557C164.665 26.9451 166.204 22.9843 169.283 19.8734C172.362 16.7304 176.291 15.1589 181.069 15.1589C185.848 15.1589 189.776 16.7304 192.855 19.8734C195.934 22.9843 197.474 26.9451 197.474 31.7557C197.474 36.5664 195.934 40.5434 192.855 43.6863ZM181.069 43.3495C184.244 43.3495 186.81 42.2591 188.766 40.0784C190.723 37.8653 191.701 35.0912 191.701 31.7557C191.701 28.3883 190.723 25.6141 188.766 23.4333C186.81 21.2525 184.244 20.162 181.069 20.162C177.862 20.162 175.28 21.2525 173.324 23.4333C171.4 25.6141 170.438 28.3883 170.438 31.7557C170.438 35.1233 171.4 37.8973 173.324 40.0784C175.28 42.2591 177.862 43.3495 181.069 43.3495ZM230.842 47.7754H225.214V33.7762H208.521V47.7754H202.893V15.6881H208.521V28.8213H225.214V15.6881H230.842V47.7754Z" fill="#101828"/>
</g>
</svg>
