<svg width="48" height="48" viewBox="0 0 48 48" fill="none" xmlns="http://www.w3.org/2000/svg">
<path d="M4.00005 24C4.00005 35.045 12.955 44 24 44C35.045 44 44 35.045 44 24C44 12.955 35.045 4 24 4C12.955 4 4.00005 12.955 4.00005 24Z" fill="#09914A"/>
<path d="M24.0001 24L38.001 38.282C45.888 30.55 46.014 17.886 38.282 9.99902L24.0001 24Z" fill="url(#paint0_linear_66_308)"/>
<path d="M24 41C33.3889 41 41 33.3888 41 24C41 14.6112 33.3889 7 24 7C14.6112 7 7.00005 14.6112 7.00005 24C7.00005 33.3888 14.6112 41 24 41Z" fill="#F2F2F2"/>
<path d="M24.0001 36.75C23.5861 36.75 23.2501 36.414 23.2501 36V24C23.2501 23.586 23.5861 23.25 24.0001 23.25C24.4141 23.25 24.7501 23.586 24.7501 24V36C24.7501 36.414 24.4141 36.75 24.0001 36.75Z" fill="#D83B01"/>
<path d="M24 24.7499C23.808 24.7499 23.616 24.6769 23.47 24.5299C23.177 24.2369 23.177 23.7619 23.47 23.4689L31.955 14.9839C32.248 14.6909 32.723 14.6909 33.016 14.9839C33.309 15.2769 33.309 15.7519 33.016 16.0449L24.53 24.5299C24.384 24.6769 24.192 24.7499 24 24.7499Z" fill="#45494D"/>
<path d="M23.9991 25.25C23.8181 25.25 23.6341 25.211 23.4591 25.127L15.6721 21.392C15.0491 21.093 14.7871 20.347 15.0861 19.724C15.3841 19.102 16.1301 18.837 16.7531 19.138L24.5401 22.873C25.1631 23.172 25.4251 23.918 25.1261 24.541C24.9121 24.988 24.4651 25.25 23.9991 25.25Z" fill="#45494D"/>
<path d="M24 26C22.8955 26 22 25.1046 22 24C22 22.8954 22.8955 22 24 22C25.1046 22 26 22.8954 26 24C26 25.1046 25.1046 26 24 26Z" fill="#1E2021"/>
<path d="M30.713 12.9631L39.132 14.0521C39.666 14.1211 40.121 13.6661 40.052 13.1321L38.963 4.71307C38.876 4.03707 38.05 3.75507 37.568 4.23807L30.238 11.5681C29.756 12.0501 30.037 12.8751 30.713 12.9631Z" fill="#09914A"/>
<defs>
<linearGradient id="paint0_linear_66_308" x1="37.749" y1="10.763" x2="32.7001" y2="30.307" gradientUnits="userSpaceOnUse">
<stop stop-color="#F2F2F2"/>
<stop offset="0.148" stop-color="#EEF1EF"/>
<stop offset="0.282" stop-color="#E4ECE8"/>
<stop offset="0.409" stop-color="#D1E4DA"/>
<stop offset="0.533" stop-color="#B7DAC8"/>
<stop offset="0.654" stop-color="#96CCB0"/>
<stop offset="0.773" stop-color="#6DBB92"/>
<stop offset="0.889" stop-color="#3EA770"/>
<stop offset="1" stop-color="#09914A"/>
</linearGradient>
</defs>
</svg>
