<svg width="20" height="20" viewBox="0 0 20 20" fill="none" xmlns="http://www.w3.org/2000/svg">
<g clip-path="url(#clip0_66_1186)">
<path d="M9.9998 19.9996C15.5224 19.9996 19.9996 15.522 19.9996 9.9998C19.9996 4.47765 15.5227 0 9.9998 0C4.47687 0 0 4.47765 0 9.9998C0 15.522 4.47765 19.9996 9.9998 19.9996Z" fill="#F0F0F0"/>
<path fill-rule="evenodd" clip-rule="evenodd" d="M16.0884 2.06696C15.0524 1.27083 13.8704 0.685697 12.6091 0.344727V5.54658L16.0884 2.06696ZM0.34491 7.39459C0.684284 6.13156 1.26954 4.94791 2.06714 3.91145L5.54676 7.39459H0.34491ZM17.9332 3.91145C18.7302 4.94834 19.3153 6.13185 19.6555 7.39459H14.4528L17.9332 3.91145ZM0.34491 12.6109H5.54676L2.06753 16.0874C1.27149 15.0524 0.686226 13.8712 0.34491 12.6109ZM3.91242 17.9331C4.94843 18.729 6.13048 19.3142 7.39165 19.6553V14.4554L3.91242 17.9331ZM3.91242 2.06696C4.94808 1.2704 6.13024 0.68523 7.39165 0.344727V5.54658L3.91242 2.06696ZM12.6083 19.6553C13.8697 19.3148 15.0519 18.7296 16.0876 17.9331L12.6083 14.4566V19.6553ZM17.9321 16.0886L14.4528 12.6121H19.6543C19.3136 13.8726 18.7285 15.0538 17.9321 16.0886Z" fill="#0052B4"/>
<path fill-rule="evenodd" clip-rule="evenodd" d="M19.9153 8.69485H11.3045V0.0836882C10.4384 -0.027245 9.56166 -0.027245 8.69556 0.0836882V8.69446H0.0847874C-0.0280997 9.56122 -0.0280997 10.439 0.0847874 11.3057H8.69556V19.9165C9.56166 20.0274 10.4384 20.0274 11.3045 19.9165V11.3057H19.9153C20.0281 10.4391 20.0281 9.56148 19.9153 8.69485ZM12.6107 12.6112L17.07 17.072L17.6579 16.4275L13.8376 12.6112H12.6092H12.6107ZM2.92965 17.072L7.39168 12.6112V13.8389L3.57144 17.6611L2.92965 17.072ZM7.39129 7.38902L2.92965 2.92973L2.34373 3.57425L6.16397 7.39644H7.39402L7.39129 7.38902ZM17.07 2.92973L12.6092 7.38902V6.1613L16.4294 2.33911L17.07 2.92973Z" fill="#D80027"/>
</g>
<defs>
<clipPath id="clip0_66_1186">
<rect width="20" height="20" fill="white"/>
</clipPath>
</defs>
</svg>
