<svg width="20" height="20" viewBox="0 0 20 20" fill="none" xmlns="http://www.w3.org/2000/svg">
<g clip-path="url(#clip0_66_1191)">
<path d="M10 20C15.5228 20 20 15.5228 20 10C20 4.47715 15.5228 0 10 0C4.47715 0 0 4.47715 0 10C0 15.5228 4.47715 20 10 20Z" fill="black"/>
<path d="M20 10C20 12.6522 18.9464 15.1957 17.0711 17.0711C15.1957 18.9464 12.6522 20 10 20C7.34784 20 4.8043 18.9464 2.92893 17.0711C1.05357 15.1957 0 12.6522 0 10H20Z" fill="#FFCE00"/>
<path d="M0 9.99984C0.00205915 11.136 0.198679 12.2634 0.581333 13.3332H19.4187C20.1938 11.1785 20.1938 8.82114 19.4187 6.6665H0.581333C0.198679 7.73628 0.00205915 8.86369 0 9.99984Z" fill="#DD0000"/>
</g>
<defs>
<clipPath id="clip0_66_1191">
<rect width="20" height="20" fill="white"/>
</clipPath>
</defs>
</svg>
