<svg width="110" height="51" viewBox="0 0 110 51" fill="none" xmlns="http://www.w3.org/2000/svg">
<path d="M59.4843 38.1887H59.4634L58.6475 37.8322L58.4488 37.1823L58.5116 36.0187L58.6266 35.222L58.7417 34.4358L58.794 33.2722L58.7417 32.1191L58.6266 31.3329L58.5116 30.5467L58.4488 29.425L58.0618 29.0896L57.7167 28.8275L57.3506 28.534L56.859 28.0728L56.3464 27.5172L56.0222 27.1084L55.6979 26.6995L55.175 26.1439L54.6101 25.6303L54.1918 25.3158L53.7838 24.9908L53.2295 24.4667L52.7169 23.9006L52.3927 23.4918L52.058 23.083L51.5455 22.5274L51.033 22.0871L50.6982 21.3533L50.7924 20.9759L51.012 20.7348L51.3467 20.5776L51.671 20.5356L52.2463 20.5566L52.6437 20.609L53.0412 20.6824L53.6165 20.7243L54.2022 20.7034L54.5997 20.6405L54.9971 20.5671L55.5724 20.5356L56.1582 20.5671L56.5452 20.63L56.9426 20.6929L57.5284 20.7243H58.7312L59.7354 20.7139L60.4884 20.7243H61.4298L62.0155 20.6929L62.4026 20.63L62.8 20.5671L63.3753 20.5356L63.961 20.5671L64.3585 20.6405L64.756 20.7034L65.3312 20.7243L65.917 20.6824L66.3145 20.609L66.7015 20.5566L67.2872 20.5356L67.6114 20.5776L67.9462 20.7348L68.1658 20.9759L68.2495 21.3533L67.9252 22.0871L67.4127 22.5274L66.8897 23.083L66.5655 23.4918L66.2412 23.9006L65.7287 24.4667L65.1744 24.9908L64.7664 25.3158L64.3481 25.6303L63.7832 26.1439L63.2602 26.6995L62.936 27.1084L62.6117 27.5172L62.0888 28.0728L61.6076 28.534L61.2311 28.8275L60.8964 29.0896L60.4989 29.425L60.4466 30.5467L60.3315 31.3329L60.206 32.1191L60.1537 33.2722L60.2165 34.4358L60.3315 35.222L60.4466 36.0187L60.4989 37.1823L60.342 37.8008L59.4948 38.1887H59.4843ZM60.8754 22.2338L60.478 22.2967L60.4048 23.083L60.2897 23.7224L60.1956 24.4457L60.1537 25.4625L60.206 26.5318L60.3106 27.2761L60.5198 27.0455L60.7918 26.7624L61.3566 26.2383L61.7645 25.9238L62.1724 25.5988L62.7373 25.0747L63.2498 24.5191L63.5845 24.1103L63.9087 23.7014L64.4213 23.1458L65.0593 22.5693L65.5195 22.2129H65.4359L65.3417 22.2024L64.756 22.2338L64.369 22.2967L63.9715 22.3701L63.3962 22.3911L62.8105 22.3701L62.413 22.2967L62.0155 22.2338L61.4403 22.2024L60.8754 22.2338ZM53.8989 22.5693L54.5369 23.1458L55.0494 23.7014L55.3737 24.1103L55.6979 24.5191L56.2209 25.0747L56.7753 25.5988L57.1937 25.9238L57.6016 26.2383L58.1664 26.7624L58.4383 27.0455L58.6475 27.2761L58.7521 26.5318L58.794 25.4625L58.7626 24.4457L58.6685 23.7224L58.5534 23.083L58.4697 22.2967L58.0827 22.2338L57.5179 22.2024L56.9322 22.2338L56.5452 22.2967L56.1477 22.3701L55.562 22.3911L54.9867 22.3701L54.5892 22.2967L54.1918 22.2338L53.6165 22.2024L53.5223 22.2129H53.4387L53.8989 22.5693Z" fill="#1177B8"/>
<path d="M103.686 37.748L103.54 37.2344L103.592 36.1966L103.707 35.5781L103.833 34.9701L103.885 33.9323L103.833 32.8211L103.707 32.1188L103.592 31.5422L103.54 30.8608L103.592 30.1585L103.707 29.5924L103.833 28.89L103.885 27.7894L103.833 26.783L103.728 26.196L103.613 25.6299L103.54 24.7074L103.216 24.33L102.965 24.0156L102.672 23.6696L102.212 23.2084L101.657 22.7157L101.249 22.4012L100.841 22.0972L100.287 21.594L100.036 21.1223L100.287 20.357L101.03 20.1055L101.594 20.357L102.107 20.8917L102.431 21.2796L102.755 21.6779L103.278 22.202L103.833 22.7052L104.241 23.0092L104.649 23.3237L105.203 23.8164L105.234 23.8478L105.266 23.8793L105.747 24.3825L106.05 24.7598L106.374 25.1477L106.876 25.6718L107.431 26.154L107.849 26.4685L108.257 26.7725L108.801 27.2757L109.004 27.6659V27.946L108.801 28.5231L108.017 28.7852L107.494 28.5231L106.981 27.978L106.657 27.5902L106.333 27.2023L105.82 26.6677L105.6 26.458L105.412 26.2903L105.297 26.8564L105.213 27.7894L105.234 28.911L105.36 29.6343L105.496 30.2109L105.559 30.8713L105.496 31.5212L105.381 32.0978L105.266 32.8211L105.213 33.9428L105.266 34.9806L105.381 35.5886L105.496 36.1966L105.559 37.2344L105.423 37.748L104.544 38.1883L103.686 37.748Z" fill="#1177B8"/>
<path d="M97.4417 26.3431L97.474 26.3325H97.4956L97.4417 26.3537V26.3431Z" fill="#1177B8"/>
<path d="M82.4006 37.7271L82.2018 37.4231L82.1077 37.0143L82.16 36.4482L82.2751 35.7144L82.4006 34.6557L82.4529 33.1042L82.432 32.947L82.4006 32.622L82.3378 32.1608L82.2751 31.6157L82.16 30.3787L82.1077 29.2046L82.1391 28.1039L82.2123 27.2548L81.8044 27.2234L81.5115 27.1605L81.1977 27.0976L80.748 27.0766L79.8902 26.867L79.5242 26.1332L80.0158 25.4937L80.748 25.3994L81.2186 25.4308L81.5324 25.4937L81.8462 25.5566L82.3169 25.5881H82.3796H82.432L82.4529 25.284V24.9381L82.4006 23.8374L82.2751 23.1665L82.16 22.4956L82.1077 21.395L82.2123 20.4829L82.5156 20.1685L83.1641 20.3152L83.8126 20.8394L84.1578 21.1433L84.4402 21.353L84.7331 21.5836L85.1305 21.961L85.5175 22.3803L85.7686 22.6948L86.0091 23.0093L86.4066 23.4391L86.8355 23.827L87.1492 24.0681L87.463 24.3196L87.8919 24.718L88.8855 25.63L89.534 26.5839L89.2202 27.3072L88.896 27.5693L88.6345 27.7894L88.4044 27.9676L88.1429 28.1773L87.7873 28.5023L87.3794 28.9216L87.1388 29.2361L86.8982 29.561L86.5008 29.9908L86.0824 30.3787L85.7686 30.6303L85.4548 30.8714L85.0259 31.2697L84.6389 31.689L84.3984 31.993L84.1578 32.3075L83.7812 32.7163V32.9051V33.1147L83.8335 34.2888L83.9486 35.0959H83.959L84.6703 34.3726L85.392 33.6598L85.779 33.23L86.0196 32.9155L86.2706 32.6011L86.6576 32.1817L86.8982 32.014L87.2957 31.9092L87.9023 32.0979L87.933 32.1711L87.8919 32.1608L87.9361 32.1785L88.2056 32.8212L88.1011 33.251L87.9442 33.4606L87.2957 34.0791L86.4798 34.8234L85.6744 35.5572L85.0259 36.1862L84.5971 36.6684L84.2833 37.0982L84.0323 37.4651L83.8231 37.7271L82.9759 37.9892L82.4006 37.7271ZM84.0741 28.1668L84.1264 29.2151L84.116 29.6554L84.095 30.0328L84.4088 29.6763L84.6285 29.3933L84.8586 29.0893L85.2351 28.691L85.6535 28.3031L85.9673 28.062L86.2811 27.8209L86.689 27.433L86.3752 27.475L86.1242 27.5379L85.8313 27.6008L85.4234 27.6217L84.9736 27.6008L84.6703 27.5379L84.367 27.475L83.959 27.433L84.0741 28.1668ZM83.8754 25.7558L84.3356 25.7872L84.6494 25.8501L84.9736 25.913L85.4338 25.9445L86.0091 25.9025L86.4171 25.8082L86.1347 25.4832L85.9255 25.2107L85.6953 24.9172L85.3293 24.5293L84.9318 24.1519L84.6285 23.9108L84.3356 23.6907L83.9695 23.3552L83.8545 24.1519L83.7812 25.305L83.7708 25.5461V25.7663L83.8231 25.7558H83.8754ZM87.9361 32.1785L87.933 32.1711L87.9337 32.1712L87.9442 32.1817L87.9361 32.1785Z" fill="#1177B8"/>
<path d="M31.9537 37.7899L31.8491 36.8675L31.9014 35.7668L32.0165 35.0959L32.142 34.425L32.1943 33.3243L32.1838 32.9888L32.1734 32.6848H32.1211L32.0583 32.6743L31.5876 32.7058L31.2738 32.7687L30.9601 32.8421L30.4894 32.8735L29.7572 32.7687L29.2551 32.1292L29.6317 31.4059L30.4894 31.1963L30.9391 31.1648L31.2529 31.1019L31.5458 31.039L31.9537 31.0076L31.8805 30.169L31.8491 29.0683L31.9014 27.8942L32.0165 26.6572L32.0792 26.1016L32.142 25.6509L32.1734 25.3154L32.1943 25.1582L32.142 23.6067L32.0165 22.548L31.9014 21.8142L31.8491 21.2481L31.9328 20.8393L32.142 20.5353L32.7173 20.2837L33.5645 20.5353L33.7737 20.7973L34.0247 21.1642L34.3385 21.6045L34.7673 22.0867L35.4158 22.7052L36.2212 23.4495L37.0371 24.1833L37.6856 24.8018L37.8425 25.0114L37.9471 25.4412L37.6784 26.0911H37.6751L37.6333 26.1121L37.677 26.0946L37.6437 26.175L37.0371 26.3532L36.6396 26.2484L36.3991 26.0911L36.012 25.6614L35.761 25.3469L35.5204 25.0324L35.123 24.6131L34.4117 23.8898L33.69 23.1769L33.5749 23.9736L33.5122 25.1477L33.5227 25.3574V25.5565L33.8992 25.9654L34.1398 26.2694L34.3803 26.5838L34.7673 27.0031L35.1962 27.391L35.51 27.6426L35.8238 27.8837L36.2422 28.2821L36.6396 28.7119L36.8802 29.0263L37.1208 29.3408L37.5287 29.7706L37.8739 30.0851L38.1458 30.3052L38.3759 30.4834L38.6374 30.6931L38.9617 30.9552L39.2755 31.6889L38.627 32.6324L37.6228 33.5444L37.2044 33.9532L36.8906 34.1943L36.5664 34.4354L36.148 34.8338L35.7506 35.2531L35.51 35.5676L35.2589 35.8821L34.8719 36.3119L34.4745 36.6788L34.1816 36.9199L33.8992 37.1295L33.554 37.4335L32.9055 37.9577L32.257 38.1044L31.9537 37.7899ZM33.5122 32.7268V32.9679L33.5959 34.121L33.7109 34.9072L34.077 34.5822L34.3699 34.3516L34.6732 34.121L35.0707 33.7436L35.4368 33.3557L35.6669 33.0622L35.8761 32.7897L36.1585 32.4542L35.7506 32.3703L35.1753 32.3179L34.715 32.3494L34.3908 32.4123L34.077 32.4752L33.6168 32.5066H33.5645H33.5122V32.7268ZM36.4304 30.8294L36.012 30.452L35.7087 30.2109L35.3949 29.9593L34.9765 29.5714L34.6 29.1731L34.3594 28.8796L34.1502 28.5861L33.8364 28.2296L33.8574 28.607V29.0578L33.8155 30.0956L33.7004 30.8294L34.1084 30.7979L34.4117 30.735L34.715 30.6721L35.1648 30.6407L35.5728 30.6721L35.8552 30.7245L36.1167 30.7874L36.4304 30.8294ZM37.6784 26.0911H37.6856L37.677 26.0946L37.6784 26.0911Z" fill="#1177B8"/>
<path d="M70.1421 37.8217L69.9434 37.1823L70.0061 36.0187L70.1212 35.222L70.2362 34.4358L70.2885 33.2722L70.2362 32.1191L70.1212 31.3224L70.0061 30.5362L69.9434 29.3726L70.0061 28.209L70.1421 27.4123L70.2676 26.6261L70.2885 25.4625L70.2153 24.299L70.1003 23.5127L69.9957 22.716L69.9434 21.5525L70.2885 20.6719L70.9475 20.5252L71.5228 20.5566L71.9202 20.6195L72.3177 20.6929L72.893 20.7138L73.4683 20.6929L73.8657 20.6195L74.2632 20.5566L74.8385 20.5252L75.4242 20.5671L75.8217 20.63L76.2192 20.7034L76.7944 20.7138L77.286 20.6824L77.6207 20.6405L77.9241 20.588L78.2692 20.5461L78.5307 20.5252L78.855 20.5146L79.1792 20.5671L79.5139 20.7243L79.7336 20.9654L79.8173 21.3428L79.493 22.0451L78.7922 22.6112L78.3215 23.1249L78.0077 23.5127L77.6835 23.9111L77.1814 24.4562L76.6375 24.9803L76.2192 25.3053L75.8008 25.6303L75.2359 26.1439L74.7234 26.6995L74.3992 27.1083L74.0749 27.5172L73.5519 28.0728L73.0603 28.534L72.6943 28.8275L72.3595 29.0791L71.9621 29.4145L71.9098 30.5467L71.7843 31.3224L71.6692 32.1191L71.6169 33.2722L71.6692 34.4253L71.7947 35.222L71.9098 36.0187L71.9621 37.1823L71.7843 37.8532L70.958 38.1887L70.1421 37.8217ZM72.3282 22.2338L71.9412 22.2967L71.8575 23.0829L71.7529 23.7224L71.6587 24.4352L71.6169 25.4625L71.6587 26.5318L71.7633 27.2761L71.983 27.035L72.2549 26.7519L72.8093 26.2383L73.2277 25.9133L73.6356 25.5883L74.19 25.0747L74.713 24.5191L75.0372 24.1102L75.3615 23.7014L75.8844 23.1458L76.512 22.5693L76.9827 22.2024H76.8886H76.7944L76.2192 22.2338L75.8217 22.2967L75.4242 22.3596L74.8489 22.3911L74.2737 22.3596L73.8762 22.2967L73.4787 22.2338L72.9035 22.2024L72.3282 22.2338Z" fill="#1177B8"/>
<path d="M47.2248 37.6645L46.9947 37.0041L47.0366 35.9454L47.1412 35.2011L47.2458 34.5197L47.3294 33.6392L47.2981 33.6601L47.2771 33.6811L46.8587 34.0899L46.545 34.331L46.2207 34.5721L45.7919 34.9705L45.4049 35.3898L45.1538 35.7043L44.9133 36.0187L44.5263 36.4485L44.0556 36.9098L43.6477 37.3081L43.4803 37.4758L43.3443 37.6016L43.2606 37.6855L43.2188 37.7169L42.8841 37.9371L42.3507 37.9895L41.9637 37.8952L41.7022 37.675L41.5453 37.3605L41.5034 37.0041L41.5557 35.851L41.6708 35.0543L41.7858 34.2681L41.8486 33.1045L41.7858 31.9514L41.6708 31.1547L41.5557 30.358L41.5034 29.2049L41.5557 28.0414L41.6708 27.2446L41.7858 26.4584L41.8486 25.2948L41.7858 24.1312L41.6708 23.345L41.5557 22.5484L41.5034 21.3848L41.6708 20.7348L42.5076 20.3784L43.3129 20.7348L43.5117 21.3848L43.4594 22.5484L43.3443 23.3346L43.2188 24.1312L43.1665 25.2844L43.2188 26.448L43.3443 27.2342L43.4594 28.0308L43.5117 29.1944L43.4489 30.3476L43.3234 31.1442L43.1979 31.9409L43.1665 33.1045L43.2502 34.2576L43.3652 35.0438L43.7313 34.7189L44.0242 34.4882L44.3275 34.2576L44.725 33.8803L45.1225 33.4505L45.363 33.136L45.6036 32.8215L46.0011 32.3917L46.3672 32.0458L46.6496 31.8256L46.9006 31.6264L47.2039 31.3853L47.0575 30.4943L46.9947 29.2049L47.047 28.0414L47.1621 27.2446L47.2876 26.4584L47.3399 25.2948L47.2876 24.1312L47.1621 23.345L47.047 22.5484L46.9947 21.3848L47.1726 20.7872L47.9465 20.3784L48.7938 20.8082L49.003 21.3848L48.9507 22.5484L48.8356 23.3346L48.7206 24.1312L48.6578 25.2844L48.7206 26.448L48.8356 27.2342L48.9507 28.0308L49.003 29.1944L48.9402 30.3266L48.7938 31.1023L48.7101 31.6055L48.6787 32.1296L48.6578 32.5699V33.1045L48.7415 34.2681L48.8565 35.0543L48.9611 35.851L49.003 37.0041L48.7624 37.696L47.9988 38.0209L47.2248 37.6645Z" fill="#1177B8"/>
<path d="M84.9517 43.0002L82.3799 42.8745L79.378 42.7382L74.9954 42.6648L70.6023 42.7382L67.6004 42.8745L65.0286 43.0002H55.4032L52.8314 42.8745L49.8295 42.7382L45.4469 42.6648L41.0539 42.7382L38.052 42.8745L35.4802 43.0002H25.8548L23.283 42.8745L20.2811 42.7382L15.888 42.6648L11.5055 42.7382L8.50354 42.8745L5.93177 43.0002H0.656679L0.554217 42.9793L0 41.9942V41.9937L0.554217 41.1133L1.11905 40.998L5.50164 41.0609L8.50354 41.2077L11.5055 41.3544L15.888 41.4174L20.2811 41.3544L23.283 41.2077L26.2849 41.0609L30.6675 40.998L35.0501 41.0609L38.052 41.2077L41.0539 41.3544L45.4365 41.4174L49.8295 41.3544L52.8314 41.2077L55.8229 41.0609L60.2159 40.998L64.5985 41.0609L67.6004 41.2077L70.6023 41.3544L74.9849 41.4174L79.378 41.3544L82.3799 41.2077L85.3818 41.0609L89.7644 40.998L94.147 41.0609L97.1489 41.2077L100.151 41.3544L104.544 41.4174L104.92 41.5117L105.266 41.9939L104.899 42.5705L104.544 42.6648L100.151 42.7382L97.1489 42.8745L94.5771 43.0002H84.9517Z" fill="#1177B8"/>
<path d="M91.7417 38.0208L91.5848 37.6539L91.6057 37.2031L91.7103 36.7314L91.7731 36.2912L91.7626 36.1758L91.7312 35.9243L91.6999 35.5364L91.6476 35.0647L91.5743 33.9535L91.5325 32.8109L91.5848 32.0351L91.7103 31.3852L91.8254 30.6724L91.8777 29.687L91.8254 28.7645L91.7103 28.125L91.5848 27.4961L91.5325 26.5736L91.5848 25.6406L91.7103 25.0012L91.8254 24.3722L91.8777 23.4392L91.658 22.0031L91.3861 21.5943L91.1455 21.154L91.3861 20.3573L92.1601 20.0952L92.6935 20.3573L93.3316 21.0806L94.4194 22.0765L95.2248 22.7369L95.7373 23.2925L96.0929 23.7747L96.4695 24.194L96.8042 24.4875L97.1389 24.7601L97.4422 24.9907L97.6618 25.1794L97.9024 25.6092L97.6618 26.4268L96.8355 26.6575L96.3544 26.4268L95.9988 26.0704L95.7373 25.7874L95.2457 25.2633L94.7855 24.823L94.5763 24.6343L94.388 24.477L94.2311 24.3408L94.1056 24.2254L93.7186 23.7747L93.478 23.4288L93.5303 24.9383L93.5512 26.5841L93.4989 27.5066L93.3734 28.1355L93.2583 28.775L93.206 29.6975L93.2583 30.6304L93.3734 31.2594L93.4989 31.8988L93.5512 32.8213L93.5094 33.7962L93.4257 34.4357L93.342 34.8445L93.3316 35.1066L93.5407 34.9598L93.729 34.8235L93.9382 34.6558L94.2102 34.4042L94.524 34.0583L94.7122 33.7962L94.9005 33.5342L95.2143 33.1987L95.5594 32.8842L95.8105 32.6956L96.072 32.5068L96.4172 32.1924L96.7519 31.8255L97.0656 31.4166L97.3376 31.0707L97.5154 30.8506L98.0175 30.5571L98.8229 30.8506L99.0948 31.6263L98.8229 32.098L98.3104 32.6327L97.5886 33.3874L97.233 33.7333L96.9297 33.9535L96.6577 34.1526L96.3753 34.3938L96.1243 34.6768L95.9465 34.9284L95.7582 35.1904L95.4967 35.484L95.1934 35.746L94.9214 35.9557L94.6286 36.1549L94.2938 36.4169L93.5826 37.1402L93.1433 37.8426L92.5262 38.2724L91.7417 38.0208Z" fill="#1177B8"/>
<path d="M0.313965 36.9828L0.376723 36.7103L2.38498 31.1753L4.65471 26.1436L8.20053 21.5102L12.0183 17.4744L15.8883 13.0925L19.9885 9.35019L25.0824 6.67707L30.3331 4.65389L35.6466 2.41058L41.0124 0.764766L46.7442 0.418854L52.382 0.597061L53.8254 0.48174L55.2584 0.251109L56.6809 0.0519562L58.0825 0.0205078L59.505 0.272085L60.8857 0.701879L62.2559 1.15264L63.6156 1.46713L65.0695 1.58242L66.5338 1.57195H67.9564L69.3266 1.75016L70.7282 2.2114L72.0461 2.84037L73.3221 3.49031L74.5878 4.00397L76.0626 4.33942L77.5165 4.55955L78.9076 4.79018L80.1837 5.16755L82.3174 6.41499L84.0851 7.79873V7.80922L84.8277 8.51157L84.7963 8.78412L84.2943 8.76315L83.6353 8.59543L83.2588 8.44867L82.7881 8.24949L82.2233 7.99791L81.6062 7.73583L80.2673 7.22218L78.8971 6.87625L77.6524 6.42549L76.3868 5.6812L74.8911 4.94742L72.9456 4.5281L70.7595 4.30797L69.0023 4.06686L67.8204 3.375L66.5757 2.87182L65.6971 2.8299L64.7766 2.94521L63.8457 3.071L62.9357 3.0605L62.0885 2.80892L61.2413 2.42106L60.394 2.04369L59.5154 1.82353L58.6264 1.86548L57.7269 2.07513L56.8169 2.28479L55.9173 2.35816L55.0387 2.19045L54.1601 1.88642L53.2815 1.59293L52.382 1.46713L46.9744 2.09608L41.4831 3.20727L36.0545 4.03542L30.6783 5.45059L25.9505 8.10272L21.3797 11.3838L16.882 14.4343L12.6145 18.1033L9.56027 22.5061L6.74664 27.4854L3.84934 32.014L1.18211 37.0352L1.02523 37.2763L0.565017 37.3602L0.313965 36.9828Z" fill="#E41A37"/>
<path d="M6.02441 36.9202L6.05579 36.7105L8.08495 31.4691L10.3652 26.7309L13.8901 22.4434L17.6764 18.7221L21.4837 14.6757L25.5002 11.2164L30.4267 8.83679L35.4996 7.04421L40.5935 4.98958L45.7187 3.46959L50.4151 3.22849L54.9859 3.45912L55.8332 3.36475L56.9105 3.1551L58.1866 2.94546L59.6405 2.87207L60.3413 3.01883L61.0421 3.34381L61.7324 3.66875L62.4227 3.85746L63.2177 3.78406L64.0858 3.55346L64.954 3.3333L65.728 3.28091L66.3555 3.44862L66.8576 3.73167L67.3597 4.01469L67.9663 4.20338L68.5416 4.23482L69.1273 4.14049L69.0646 4.10904L69.0018 4.06712L70.759 4.30822L72.9451 4.52835L74.8906 4.94767L76.3863 5.68146L77.6519 6.42575L78.8966 6.87651L80.2669 7.22243L81.6057 7.73609L82.2228 7.99816L82.7876 8.24974L83.2583 8.44893L83.6349 8.59569L84.2938 8.7634L84.7959 8.78436L84.8272 8.51181L84.0846 7.80948V7.79897L84.4925 8.10297L84.9109 8.37553L85.6222 8.66905L86.4171 8.83679L87.212 9.015L87.9233 9.32947L88.4986 9.8641L88.9693 10.5245L89.4504 11.1954L89.9943 11.73L90.7055 12.0864L91.49 12.3171L92.264 12.5477L92.9439 12.8936L93.4983 13.4806L93.948 14.1725L94.3769 14.8539L94.879 15.399L95.6111 15.8183L96.4061 16.1013L97.1487 16.353L97.7658 16.6989L98.9373 17.9673L99.4289 18.9736L99.3975 19.7389L98.6654 20.2735L98.2574 20.263L97.7972 20.0743L97.6508 19.8018L97.6298 19.4558L97.588 19.1099L97.4102 18.8478H97.1801L96.8663 19.0156L96.5106 19.1099L96.1236 18.9527L95.8831 18.6487L95.7785 18.3237L95.7053 18.0092L95.5588 17.6947L95.0149 16.6779L94.3037 15.8917L93.8016 15.5877L93.2577 15.4619L92.6092 15.116L91.8352 14.204L90.967 13.3654L90.1303 13.1557L89.3354 13.0194L88.5927 12.4533L87.7664 11.73L86.8146 11.3841L85.936 11.1535L85.277 10.8075L84.4821 10.1576L83.0282 10.0004L82.0241 9.74879L81.1559 9.18271L80.2041 8.58518L78.9489 8.24974L77.6938 8.11348L76.5328 7.92477H76.5432L75.7169 7.50547L74.8906 7.00229L74.0329 6.54106L73.1125 6.20561L72.1083 6.10077L71.0415 6.16367L69.9641 6.22656L68.8868 6.15319L67.9977 5.89111L67.2446 5.52422L66.4706 5.1678L65.5397 4.93719L63.7616 4.83235L62.5587 4.95815L61.6383 5.13635L60.6864 5.18878L59.4208 5.02103L57.8519 4.72753L56.2829 4.45498L54.9859 4.32917L52.6744 4.4969L50.6347 4.90572L48.5637 5.41938L46.1789 5.91209L40.9909 6.61443L35.8448 7.84092L31.2844 10.2729L26.86 13.2815L22.467 16.028L18.2726 19.3615L15.2289 23.4603L12.4257 28.1042L9.52838 32.3392L6.86119 37.046L6.71475 37.2137L6.27543 37.2347L6.02441 36.9202Z" fill="#3BA937"/>
<path d="M13.6077 36.9412L13.639 36.7L15.6787 31.8256L17.9902 27.4333L21.5151 23.5966L25.291 20.284L29.0356 16.657L32.9893 13.575L37.738 11.5728L42.5808 10.0947L47.4445 8.27072L52.2873 6.91844L54.5885 6.6983L56.5026 6.74022L58.3748 6.87652L60.5505 6.96036L61.6487 6.83456L63.1026 6.57252L64.5565 6.32091L65.6338 6.22656L66.4183 6.3943L67.1819 6.70877L67.935 7.04422L68.688 7.23293L69.4934 7.18051L70.2988 6.98132L71.0937 6.79264L71.8678 6.77167L72.6418 7.0023L73.3739 7.39017L74.0852 7.78851L74.8174 8.04009L75.6751 8.06106L76.5328 7.92478L77.6938 8.11349L78.9489 8.24974L80.2041 8.58519L81.1559 9.18272L82.024 9.74879L83.0282 10.0004L84.4821 10.1576L85.277 10.8076L85.9359 11.1535L86.8146 11.3841L87.7664 11.73L88.5927 12.4533L89.3353 13.0194L90.1303 13.1557L90.967 13.3654L91.8352 14.204L92.6092 15.116L93.2577 15.4619L93.8016 15.5877L94.3037 15.8917L95.0149 16.6779L95.5588 17.6948L95.4542 17.5585L95.3078 17.4222L94.9835 17.3383L94.722 17.4851L94.4082 17.6214L93.9689 17.5061L93.697 17.2021L93.5819 16.8247L93.4773 16.4368L93.2054 16.0699L92.8184 15.9546L92.4314 16.0385L92.0234 16.1433L91.5842 16.0385L91.218 15.682L90.9147 15.1894L90.6114 14.7072L90.2244 14.3403L89.7642 14.2564L89.2726 14.3403L88.781 14.4346L88.3103 14.3507L87.9128 14.0048L87.5886 13.5331L87.2539 13.0614L86.8564 12.7259L86.3439 12.6211L85.7686 12.663L85.1933 12.7049L84.6808 12.6106L84.2624 12.2961L83.8963 11.8453L83.5302 11.4051L83.1118 11.1116L82.3274 10.9648L81.4488 10.9543H80.5179L79.5661 10.8076L78.8025 10.4826L78.0389 10.0004L77.244 9.53914L76.3759 9.22464L75.5391 9.18272L74.65 9.29803L73.7296 9.42383L72.8196 9.40285L72.0037 9.16175L71.1774 8.7739L70.3511 8.39651L69.4725 8.17637L68.6253 8.21829L67.7362 8.42796L66.8472 8.63762L65.9581 8.72148L64.7971 8.55374L63.27 8.24974L61.7324 7.95622L60.5505 7.83043L58.469 7.99817L56.7118 8.40698L54.9232 8.91017L52.7267 9.36093L47.842 9.89556L42.9469 10.8809L38.5643 13.0299L34.2968 15.682L29.9979 18.0302L25.8977 20.9025L22.8331 24.6344L20.0089 28.8799L17.0907 32.7376L14.434 37.0565L14.2666 37.2347L13.8482 37.2766L13.6077 36.9412Z" fill="#1177B8"/>
</svg>
