<svg width="20" height="20" viewBox="0 0 20 20" fill="none" xmlns="http://www.w3.org/2000/svg">
<g clip-path="url(#clip0_66_1181)">
<path d="M10 20C15.5228 20 20 15.5228 20 10C20 4.47715 15.5228 0 10 0C4.47715 0 0 4.47715 0 10C0 15.5228 4.47715 20 10 20Z" fill="#F0F0F0"/>
<path d="M19.3778 13.4776C19.7904 12.3646 20.0011 11.1869 20 9.99982C20.0012 8.8126 19.7905 7.63471 19.3778 6.52148H0.622228C0.209533 7.63471 -0.00117829 8.8126 4.9558e-06 9.99982C-0.00117829 11.187 0.209533 12.365 0.622228 13.4782L10 14.3476L19.3778 13.4776Z" fill="#0052B4"/>
<path d="M10 19.9998C14.3 19.9998 17.965 17.2859 19.3778 13.4775H0.622253C2.03503 17.2859 5.70003 19.9998 10 19.9998Z" fill="#D80027"/>
</g>
<defs>
<clipPath id="clip0_66_1181">
<rect width="20" height="20" fill="white"/>
</clipPath>
</defs>
</svg>
